<?xml version="1.0" encoding="UTF-8"?><svg id="b" xmlns="http://www.w3.org/2000/svg" viewBox="0 0 755.77 593.66"><defs><style>.c{fill:none;}.d{fill:#fff;}</style></defs><path class="c" d="M734,480.16c-19.39-5.21-25.55-19.68-39.81-25.47-13.13-5.32-28.64,3.83-41.68,4.76l1.05,9.63c-1.12-.09-2.2-.13-3.23-.09-.27,0-.55,.02-.84,.03-.13,0-.28,.01-.42,.02-.17,0-.34,.01-.52,.02-.14,0-.29,.01-.43,.02-.19,0-.38,.02-.57,.03-.15,0-.3,.02-.45,.02-.21,.01-.42,.02-.64,.03-.15,0-.3,.02-.46,.02-.23,.01-.46,.02-.69,.04-.18,0-.36,.02-.54,.03-.23,.01-.45,.02-.68,.04-.2,.01-.4,.02-.6,.03-.23,.01-.45,.03-.68,.04-.22,.01-.45,.03-.67,.04-.23,.01-.45,.03-.68,.04-.22,.01-.45,.03-.68,.04-.25,.02-.5,.03-.76,.05-.22,.01-.45,.03-.68,.04-.26,.02-.52,.03-.78,.05-.24,.01-.48,.03-.72,.05-.27,.02-.55,.03-.83,.05-.24,.02-.48,.03-.72,.05-.28,.02-.56,.04-.85,.06-.27,.02-.54,.04-.81,.05-.26,.02-.52,.03-.79,.05-.29,.02-.59,.04-.89,.06-.26,.02-.52,.04-.79,.05-.3,.02-.61,.04-.91,.06-.27,.02-.54,.04-.81,.06-.31,.02-.62,.04-.93,.07-.27,.02-.55,.04-.82,.06-.31,.02-.62,.04-.93,.07-.29,.02-.58,.04-.88,.06-.32,.02-.64,.05-.97,.07-.28,.02-.56,.04-.84,.06-.33,.02-.66,.05-1,.07-.29,.02-.58,.04-.87,.06-.33,.02-.67,.05-1.01,.07-.29,.02-.59,.04-.89,.07-.33,.03-.67,.05-1,.08-.29,.02-.59,.04-.88,.07-.37,.03-.74,.06-1.11,.08-.24,.02-.48,.04-.72,.06-.4,.03-.81,.06-1.22,.09-.26,.02-.53,.04-.79,.06-.38,.03-.76,.06-1.14,.09-.28,.02-.57,.05-.85,.07-.38,.03-.76,.06-1.14,.09-.27,.02-.54,.04-.81,.07-.39,.03-.79,.06-1.18,.1-.21,.02-.43,.04-.64,.05-.47,.04-.94,.08-1.41,.12l-.25,.02c-.57,.05-1.15,.1-1.73,.15-.08,0-.16,.01-.25,.02-3.82,.33-7.64,.67-11.39,1.02l-.19,.02c-.53,.05-1.06,.1-1.58,.15l-.37,.04c-.5,.05-1.01,.1-1.51,.15-.14,.01-.28,.03-.42,.04-.5,.05-1.01,.1-1.51,.15-.13,.01-.26,.03-.39,.04-.49,.05-.97,.1-1.45,.15-.15,.02-.3,.03-.45,.05-.45,.05-.9,.09-1.35,.14-.17,.02-.34,.04-.51,.05-.44,.05-.87,.09-1.31,.14-.18,.02-.35,.04-.53,.06-.42,.05-.84,.09-1.26,.14-.18,.02-.36,.04-.54,.06-.41,.05-.82,.09-1.22,.14-.18,.02-.36,.04-.54,.06-.41,.05-.81,.09-1.21,.14-.17,.02-.34,.04-.5,.06-.4,.05-.8,.09-1.19,.14-.16,.02-.32,.04-.48,.06-.39,.05-.77,.09-1.15,.14-.17,.02-.33,.04-.5,.06-.37,.05-.74,.09-1.1,.14-.16,.02-.33,.04-.49,.06-.36,.05-.71,.09-1.06,.14-.16,.02-.31,.04-.47,.06-.35,.05-.7,.09-1.04,.14-.15,.02-.29,.04-.43,.06-.34,.05-.68,.1-1.01,.14-.14,.02-.27,.04-.41,.06-.33,.05-.66,.1-.98,.14-.13,.02-.25,.04-.38,.06-.32,.05-.64,.1-.94,.15-.12,.02-.24,.04-.36,.06-.31,.05-.61,.1-.9,.15-.11,.02-.22,.04-.33,.06-.29,.05-.58,.1-.86,.15-.1,.02-.19,.03-.29,.05-.28,.05-.56,.1-.83,.15-.09,.02-.17,.03-.26,.05-.27,.05-.54,.1-.8,.15-.07,.01-.14,.03-.21,.04-.26,.05-.52,.11-.76,.16-.06,.01-.11,.03-.17,.04-.25,.05-.49,.11-.72,.16-.03,0-.06,.02-.1,.02-.25,.06-.49,.12-.71,.18h0c-1.51,.39-2.52,.78-2.93,1.15h0c.03-.1,.06-.22,.09-.34v-.03c.04-.13,.07-.27,.11-.43v-.04c.04-.16,.08-.33,.12-.51v-.06c.05-.18,.09-.37,.14-.58l.02-.09c.04-.21,.09-.42,.14-.65l.02-.1c.05-.23,.1-.48,.15-.74l.02-.1c.05-.27,.11-.54,.17-.83v-.06c.07-.3,.13-.62,.2-.94v-.05c.95-4.81,2.3-12.09,3.79-20.36l.02-.12c1.61-8.9,3.39-18.92,5.03-28.24h0c.22-1.23,.43-2.45,.64-3.64l.02-.1c1.1-6.25,2.12-12.05,2.96-16.8,.12-.68,.24-1.34,.35-1.98l.07-.4c.03-.16,.05-.3,.08-.46,.06-.32,.11-.63,.17-.94,.01-.07,.03-.14,.04-.22,.06-.33,.11-.65,.17-.96,7.05,14.36,13.92,27.78,14.66,30.39,6.82-2.08,15.54-6.27,24.98-11.53,29.99-15.86,70.09-45.19,79.57-51.53,1.83-1.22-2.8-12.92-9.14-26.46h0c4.04-2.7-14.29-30.03-22.01-41.82,0,0-1.81,1.03-4.93,2.82-.02-.03-.04-.07-.07-.1,0,0-.21,.12-.6,.34l-16.83-17.51c6.61,8.52,12.08,14.89,16,17.98-2.95,1.68-10.25,5.86-19.64,11.27-8.13-21.01-15.76-39.92-22.94-56.92l26.58,27.66c-9.87-12.73-22.26-30.25-35.71-48.79-1.6-3.62-3.18-7.14-4.74-10.56-58.06-127.66-83.24-115.94-103.09-84.43-.11,.17-.22,.34-.34,.51-2.9-5.48-7-13.13-10.53-20.85,18.14-11.84,38.66-27.04,38.66-27.04,5.41-21.29-13.46-67.88-47.62-83.51-30.96-14.17-55.53-7.6-81.57,14.79-15.56,13.38-23.74,43.8,4.48,60.14,1.36,12.4,10.29,55.71,3.22,64.76-1.47,1.88,21.32-1.46,43.84-8.53,1.22,1.22,2.12,2.67,2.96,4.01,1.57,2.51,5.23,9.89,8.51,15.83-10.03,2.29-18,8.6-21.41,17.57-13.14,22.35-34.79,71.74-54.08,80.75-16.36,7.64-134.52,16.77-135.25,19.88h0c-3.56-3.12-11.26-2.23-15.25-16.75-2.6-9.46-3.77-15.43-8.17-20.35-1.24-1.39-9.23,3.01-5.04,12.35,2.84,6.34,1.48,9.8,1.11,14.88-.1,1.44-1.78,3.23-3.86,5.16-1.85-3.1-3.44-5.69-4.73-7.69-8.84-13.64-12.24-22.12-25.48-18.71-3.47,.89-9.89,2.53-15.09,3.54-11.74,2.28-6.89,10.97-2.08,18.42,2.93,4.54,6.91,11.11,11.19,18.25-1.65,3.53-1.24,8.37,3.36,9.67h-.02s.03,0,.05,0c.15,.04,.31,.08,.47,.11,.17,.05,.37,.1,.61,.16,1.47,.89-.34,8.95,8.27,11.31,.62,1.02,1.23,2.03,1.83,3.01,.09,.92,.42,1.94,1.47,2.82,.16,.14,.32,.25,.49,.38,2.85,4.63,5.33,8.54,7.13,11.12,4.15,5.94,9.93,13.49,20.23,10.67,4.43-1.21,11.58-2.04,14.46-2.92,6.39-1.95,10.71-4.48,2.77-18.1,7.19-.91,13.27-1.93,13.27-1.93,14.11,1.11,53.92,3.56,91.75,3.33-15.41,14.98-30.06,30.93-30.06,30.93,0,0,.22,.25,.61,.71-3.96,3.41-7.32,5.99-9.94,6.79-4.15,1.28-11.23,3.53-21.72,5.16-12.32,1.91-14.14,3.22-19.22,13.74-.45,.93-2.25,7.25-3.44,11.67-1.88-.3-3.63-.46-4.84-.33-5.65,.62-8.17-1.72-19.2,.39-4.95,.95-15.27-.55-17.38,4.81-.68,1.72-6.26,9.35-3.88,9.19,6.2-.42,10.65-3.9,17.28-1.68,1.97,.66,11.54-1.36,19.89-2.11-.65,1.25-1.62,2.98-3.11,5.45-2.92,4.81-.12,14.62,9.19,15.71,4.67,.55,13.68-3,22.17-7.77,.31-.17,.22,.33,.13,1.18h0c-.16,1.55-.3,4.25,2.03,6.15,4.15,3.37,10.25-1.29,10.47-.2,1.48,7.29,9.51-.19,10.72,2.11,2.4,4.55,12.2-1.39,18.76-8.22,1.39-1.44,15.41-24.78,21.7-35.58,.44-.03,.81-.18,1.09-.47,1.2-1.21,7.5-6.81,17.08-15.24,11.65,41.17,29.62,103.37,36.32,124.24-.55,27.83-9.04,58.26-32.66,73.23-.5,.32-7.31,7.48-14.86,12.86-8.03,5.72-12.78,11.3-.12,11.3,14.51,0,50.48,1.88,59.84-7.99,3.6-3.79,30.18-35.23,30.18-31.13,0,6.41,.76,37.45,.8,38.13l7.45,.22c.68-2.66,.43-15.53,.43-23.74,0-20.08,11.89-38.47,13.77-53.74,1.73-14.06-8.87-18.68-13.15-31.03l-8.64,1.5c-2.64-15.47-13.01-122.37-10.83-130.09,0,0,11.65,2.57,28.07,5.74,2.58,17.05,4.18,28,4.18,28h.32c5.31,35.42,13.98,89.94,14.75,95.95,8.05,63,11.41,91.53,63.65,76.07,19.49-5.77,80.74-28.14,117.62-41.72l.06,.53c30.82,14.05,43.81,14.26,49.23,44.88,.1,.58-12.95,11.44-15.67,18.28-3.65,9.16-3.64,9.63-1.83,9.91,5,.79,45.33,1.78,46.14-2.16,4.96-24.1,6.94-32.48,5.95-39.09-3.97-26.66-25.81-52.28-23.47-51.65,6.19,1.67,34.52,5.89,34.46,5.76-.65-1.33,1.24-7.67,1.24-7.67-.77-.38-11.9-3.71-19.83-5.85Zm-477.55-75.84c1.42-1.37,1.95-3.45,2.48-5.29,.27-.93,.38-1.86,.38-2.76,1.77,.27,3.12,.79,3.79,1.68,1.43,1.89,5.23,.07,7.82-1.86-2.21,2.13-4.71,4.13-7.64,5.83-7.96,4.6-7.87,3.39-6.84,2.4Zm18.7-12.75c.18-.83-1.81-.76-6.27-3.16,0,0-.26-.07-.69-.19,1.47-1.68,2.72-3.92,4.09-6.34,1.24-2.18,14.23-2.87,14.18-2.83-3.87,2.77-7.12,7.62-11.3,12.52ZM396,70.31c-.35-3.05-.38-5.01-.13-6.15,.17,.21,.35,.43,.53,.64-.73,4.71-.29,9.57,1.69,14.32,.4,.96,.77,1.93,1.13,2.91-.24,.06-.48,.12-.72,.18-1.4-4.11-2.12-8.55-2.5-11.89Z"/><path class="d" d="M188.98,566.36c0-7.36-7.12-128.47-14.15-178.93-2.61-18.7-10.46-24.75-15.73-15.59-6.55,11.37-6.7,14.8-8.29,14.83-3.6,.07-8.93-.21-16.93-.54-.56-.02-1.17,.13-1.73-.07-.2-.07-.37-.34-.51-.75l3.16-2.05c-1.18,.2-2.34,.47-3.47,.79-1.54-8.34-.82-37.96-26.79,.03-9.8,14.33-52.6,85.65-74.97,140.79l-2.13-2.27c-.3,2.2-.21,4.56,.27,6.97-.66,1.69-1.3,3.37-1.92,5.03-13.89-45.04,45.35-106.9,49.15-152.44,1.63-19.53-17.96-19.23-20.44,.76-6.7,54.02-83.39,112.32-39.25,179.01,.58,.88,1.17,1.73,1.75,2.57-3.04,16.69-.33,27.46,11.69,27.42,2.53,0,110.87-.03,155.52,0l.83,1.52c.05-.48,.09-.98,.1-1.52,10.74,.01,17.56,.02,17.98,.04,1.27-19.25-14.11-22.6-14.11-25.61Z"/><path d="M192.82,567.98c-.87-.63-1.94-1.4-2.22-1.79-.06-7.33-4-74.59-8.84-129.21l19.39,4.98,.81-3.14-20.5-5.27c-.21-2.31-.42-4.6-.63-6.86h21.85v-3.24h-22.15c-.17-1.77-.34-3.52-.51-5.25l21.69-5.97-.86-3.12-21.16,5.83c-1.07-10.5-2.15-19.97-3.24-27.74-1.7-12.21-5.76-20.1-10.87-21.09-1.69-.33-4.97-.13-7.87,4.91-3.15,5.47-4.81,9.07-5.91,11.46-.51,1.11-1,2.16-1.28,2.57-2.8,.04-6.69-.12-12.01-.35-1.09-.05-2.26-.1-3.47-.15l.05,.3c-1.13,.19-2.23,.45-3.31,.76-.53,.15-1.04,.31-1.55,.49-5.89,2.01-10.59,5.64-12.56,9.9l-2.94-1.36c2.41-5.21,7.87-9.47,14.8-11.74,.52-.17,1.04-.32,1.57-.47,.52-.14,1.05-.27,1.58-.39-.08-.65-.16-1.33-.24-1.96-.74-6.34-1.75-15.03-7.14-16.36-5.13-1.27-12.15,4.91-22.09,19.44-7.12,10.41-33.11,53.25-55.17,97.46-7.81,15.65-14.27,29.7-19.38,42.14l.38,.05c-.16,1.19-.2,2.42-.12,3.66,.07,1.06,.22,2.13,.45,3.2,.88,4.07,2.91,8.16,5.86,11.57,4.93,5.69,11.89,8.85,19.61,8.89l-.02,3.24c-8.67-.05-16.5-3.61-22.04-10.01-2.28-2.64-4.08-5.65-5.3-8.79-.12-.32-.23-.64-.35-.96-.16-.47-.32-.95-.45-1.42-.27-.94-.5-1.89-.66-2.84-.17-.94-.28-1.88-.33-2.81-.57-4.55-.53-9.4,.12-14.57,2.57-20.44,14.38-43.21,25.81-65.24,11.98-23.1,23.29-44.93,24.92-64.46,.87-10.41-3.98-15.61-9.16-16.15-6.09-.62-13.05,4.86-14.5,16.58-2.31,18.59-13.03,37.67-24.38,57.87-10.55,18.78-21.46,38.2-26.14,58.47-5.34,23.12-1.57,43.98,11.52,63.76,.46,.69,.92,1.37,1.39,2.05-1.71,9.9-1.31,17.24,1.21,22,2.35,4.44,6.43,6.68,12.2,6.67,1.29,0,113.6-.04,157.28,0l-2.54-.27c.04-.41,.07-.87,.09-1.34,.02-.51,.02-1.05,0-1.62-.14-4.24-1.35-9.99-4.63-13.93-2.09-2.52-4.75-3.91-7.9-4.15l-1.81-.14,.35-1.78c.06-.33,6.26-32.78,.35-53.25-3.31-11.45-6.99-16.85-12.3-18.07-3.05-.7-6.21-.13-8.89,1.59-3.46,2.22-5.85,6.14-6.93,11.34l-3.17-.66c1.58-7.66,5.41-11.52,8.35-13.4,3.42-2.2,7.45-2.91,11.36-2.02,8.32,1.9,12.1,11.34,14.69,20.32,5.42,18.73,1.26,46,.03,53.09,3.29,.64,6.1,2.34,8.37,5.07,3.65,4.39,5.25,10.79,5.39,16,.02,.56,0,1.09,0,1.62-.02,.56-.05,1.1-.1,1.62,9.72,.01,15.88,.02,16.39,.04l1.59,.08,.1-1.59c.98-14.78-7.39-20.84-11.88-24.09Z"/><path d="M484.79,315.03c-.44-.42-.79-.86-1.04-1.29-.01-.03-.03-.05-.05-.08-.3-.55-.56-1.33-.3-2.09,.05-.15,.11-.29,.21-.44l-2.72-1.75c-1.05,1.63-1.1,3.64-.16,5.55,.05,.09,.08,.19,.13,.28,.22,.41,.49,.8,.78,1.18,.33,.42,.71,.82,1.13,1.18,2.07,1.85,5.05,2.98,8.16,2.98h.46v-3.24h-.46c-2.66,0-4.81-1.04-6.14-2.29Z"/><path d="M493.76,277.86c2.71,1.88,6.08,4.21,11.34,.89,3.25-2.06,4.92-2.35,5.99-1.99,.56,.19,.95,.55,1.32,.94,.05,.05,.11,.11,.16,.16,.29,.3,.63,.65,1.03,.95,.56,.41,1.24,.72,2.13,.64l-.26-3-.02-.22s.09,0,.12,.02c-.13-.06-.44-.39-.65-.61-.15-.16-.32-.32-.48-.48-.39-.37-.8-.71-1.27-1-1.92-1.16-4.71-1.35-9.79,1.86-3.45,2.18-5.26,.92-7.77-.81-4.31-2.98-8.48-4.78-15.91,3.37l2.39,2.18c6.13-6.73,8.46-5.12,11.68-2.89Z"/><path d="M531.68,328c-1.7,2.83-2.97,6.08,1.84,11.85l2.49-2.07c-3.74-4.48-2.73-6.16-1.56-8.11,1.63-2.71,2.53-5.28-3.08-9.3l-1.88,2.63c3.64,2.6,3.24,3.25,2.19,5Z"/><path d="M507.36,352.19c0,.08-.08,.32-.34,.6-.58,.63-1.56,1.07-2.39,1.07v3.24c1.72,0,3.59-.83,4.77-2.12,.85-.93,1.27-2.01,1.18-3.06l-3.22,.28Z"/><path d="M476.26,350.79c.02,.27,.03,.54,.03,.8h3.24c0-.07,0-.15,0-.23-.09-4.53-2.94-12.07-8.05-14.28l-1.28,2.97c3.22,1.39,5.76,6.68,6.07,10.73Z"/><path d="M525.79,306.06c1.15-1.78,2.4-3.36,3.73-4.7l-.79-.79-1.5-1.5c-2.25,2.25-4.27,5.08-6,8.39l2.87,1.5c.53-1.02,1.1-1.99,1.68-2.9Z"/><path d="M557.27,259.38c.16,0,.32,0,.48-.02l-.28-3.22c-.37,.03-.73-.05-1.09-.21-.45-.2-.89-.52-1.34-.92-.39-.36-.78-.78-1.18-1.23-.45-.52-.91-1.09-1.37-1.67-.11-.13-.21-.27-.32-.4-.47-.59-.97-1.2-1.5-1.79-.58-.65-1.21-1.26-1.88-1.8-1.63-1.3-3.55-2.12-5.91-1.64l.24,1.2,.33,1.62,.07,.35c1.43-.29,2.64,.35,3.93,1.6,.78,.76,1.59,1.74,2.49,2.88,.74,.93,1.48,1.86,2.28,2.68,.4,.41,.81,.79,1.23,1.13,.44,.34,.89,.64,1.37,.87,.75,.37,1.55,.59,2.43,.59Z"/><path d="M582.04,288.16c0,.22-.02,.44-.02,.64h3.24c0-.16,0-.34,.01-.51,.03-.76,.06-1.61-.24-2.39-3.82-9.88-2.44-10.7-1.53-11.25,2.97-1.77,3.03-4.26,.25-10.69l-2.97,1.28c1.56,3.61,1.81,5.19,1.75,5.89-.03,.32-.03,.35-.69,.74-3.08,1.83-3.9,4.69,.16,15.19,.06,.18,.04,.76,.03,1.1Z"/><path d="M559.84,214.23c2.42,4.2,5.74,9.96,11.01,9.96v-3.24c-3.4,0-6.18-4.82-8.21-8.34-.49-.85-.95-1.65-1.39-2.33l-2.72,1.75c.4,.62,.84,1.39,1.31,2.2Z"/><path d="M565.98,315.65c-.63,.28-1.23,.54-1.84,.66l.62,3.18c.96-.19,1.79-.55,2.52-.87,1.72-.75,3.03-1.32,5.98,.75,.42,.29,.87,.64,1.35,1.04,.21,.18,.43,.32,.65,.46,.57,.36,1.16,.61,1.76,.73,.31,.06,.61,.1,.92,.1,1.07,0,2.15-.37,3.14-1.13,2.02-1.53,3.5-4.72,2.47-7.01-.35-.79-1.53-2.55-4.79-1.92l.61,3.18c.76-.15,1.17-.05,1.22,.06,.23,.51-.24,2.18-1.47,3.12-1.1,.84-1.93,.36-2.45-.08-.09-.08-.18-.14-.27-.21-.67-.54-1.3-.99-1.89-1.37-.7-.45-1.36-.8-1.97-1.05-2.67-1.09-4.6-.5-6.56,.36Z"/><path d="M609.06,304.48c.09,.24,.14,.78,.13,1.67l3.24-.07c0-1.44-.09-3.06-1.17-3.98-2.19-1.87-1.86-2.28-1.21-3.11,.48-.61,1.15-1.44,.99-2.61-.11-.84-.62-1.58-1.55-2.26l-1.92,2.61s.06,.05,.09,.07c-.05,.07-.1,.13-.15,.19-1.44,1.81-2.37,4.11,1.54,7.5Z"/><path d="M588.43,246.8v-3.24c-2.45,0-2.98-.39-3.09-.56-.04-.06-.36-.63,.48-2.69l-3-1.22c-.65,1.59-1.38,3.92-.17,5.72,1.18,1.75,3.47,2,5.78,2Z"/><path d="M554.18,278.05v3.24c1.97,0,3.35,.62,3.99,1.8,.46,.85,.35,1.68,.22,1.86,.02-.03,.12-.13,.29-.19l1.03,3.07c1.49-.5,2.29-2.31,1.95-4.39-.41-2.48-2.61-5.38-7.49-5.38Z"/><path d="M529.2,225.08c-.1,.2-.12,.28-.57,2.02-.44,1.72-1.18,4.59-1.56,5.68l3.06,1.06c.42-1.21,1.15-4.05,1.63-5.93,.21-.81,.36-1.43,.42-1.6l-1.53-.53-1.46-.7Z"/><path d="M498.69,255.02v-1.7l.3-1.51c-.07-.01-.34-.07-.74-.16-2.1-.46-3.75-.81-5.02-1.08-1.83-.38-2.87-.57-3.3-.61l-.07,.76-.22,2.47c.55,.05,3.21,.6,7.92,1.63q.95,.21,1.13,.21Z"/><path d="M545.94,156.36h3.24c0-.71,.12-1.46,.24-2.26,.29-1.86,.61-3.97-.34-6.53l-3.03,1.13c.66,1.77,.42,3.29,.17,4.91-.14,.88-.28,1.79-.28,2.75Z"/><path d="M438.51,198.77l.04,.07,1.46-.7,1.58-.37c-.05-.21-.12-.35-.21-.51-1.33-2.52-1.23-3.71-1.1-3.93,.05-.09,.39-.22,1.05-.19l.1-3.23c-2.29-.06-3.38,.89-3.9,1.71-1.01,1.61-.68,4.02,.98,7.16Z"/><path d="M536.09,183.07l-1.72,2.74c1.91,1.2,2.56,2.2,3.56,3.71,.36,.54,.76,1.16,1.26,1.82l2.6-1.93c-.44-.59-.8-1.14-1.15-1.67-1.05-1.59-2.04-3.1-4.54-4.67Z"/><path d="M734.42,478.6c-10.67-2.87-17.21-8.65-23.54-14.24-4.98-4.4-9.69-8.57-16.09-11.16-8.99-3.65-18.75-.96-28.18,1.64-5.02,1.38-9.77,2.69-14.22,3l-1.68,.12,1.03,9.41c-.5-.01-1-.01-1.47,0-8.01,.3-30.66,1.78-52.34,3.77-24.91,2.29-35.22,3.99-39.65,5.19,.23-1.12,.51-2.5,.82-4.14,.83-4.3,1.99-10.54,3.44-18.56,2.65-14.64,5.75-32.27,8.01-45.14,.26-1.46,.5-2.85,.73-4.16,1.16,2.35,2.3,4.64,3.38,6.81,4.56,9.18,8.49,17.11,8.99,18.86l.45,1.59,1.58-.48c6.99-2.14,15.85-6.39,25.43-11.72,24.06-12.73,54.3-33.91,70.92-45.55,3.81-2.67,6.81-4.77,8.64-5.99,1.36-.91,3.59-2.41-8.16-27.62,1.73-3.88-3.87-14.48-21.02-40.6l-2.34-3.57-1.32,.75c-.38,.22-1.65,.94-3.61,2.06l-.06-.1-1.32,.75-.48,.27c-8.12-6.97-23.17-27.85-40.22-51.5-3.35-4.64-6.76-9.38-10.23-14.15-1.57-3.56-3.13-7.03-4.67-10.41-32.3-71.02-56.86-104.74-77.3-106.13-12.08-.82-20.97,9.71-27.47,19.68-2.47-4.67-5.69-10.79-8.6-17.07,2.4-1.58,5-3.31,7.84-5.24,15.17-10.31,29.58-20.98,29.72-21.09l.46-.34,.14-.56c5.68-22.35-13.79-69.49-48.52-85.38-15.53-7.11-29.8-9.21-43.62-6.43-12.93,2.6-25.9,9.62-39.67,21.46-8.66,7.45-16.49,21.58-14.44,36.37,1.06,7.69,5.23,18.05,18.47,25.99,.31,2.54,.85,6.05,1.51,10.25,2.5,16.04,7.14,45.89,1.95,52.54-.56,.71-.54,1.67,.03,2.33,.34,.39,.71,.81,2.8,.81,1.42,0,3.65-.19,7.2-.72,5.49-.81,12.3-2.19,19.19-3.86,4.07-.99,9.48-2.41,15.39-4.23,.78,.92,1.44,1.97,2.09,3.02,.84,1.35,2.35,4.23,4.1,7.57,1.27,2.43,2.39,4.54,3.37,6.36-7.35,2.12-13.47,6.35-17.46,12.17-1.24,1.81-2.24,3.73-3.02,5.75-3.06,5.21-6.56,11.83-10.42,19.16-12.06,22.85-28.58,54.15-42.87,60.82-9.26,4.33-52.96,9.25-88.07,13.21-32.74,3.69-42.98,5.03-46.34,6.23-.89-.59-1.88-1.04-2.91-1.51-3.64-1.65-8.17-3.7-10.93-13.77-.31-1.14-.6-2.22-.88-3.26-2.04-7.62-3.52-13.12-7.64-17.73-1.01-1.13-2.91-1.04-4.86,.22-3.25,2.11-5.95,7-2.87,13.87,2.07,4.62,1.73,7.45,1.29,11.04-.12,.97-.24,1.97-.32,3.06-.04,.61-.85,1.61-1.91,2.69-1.42-2.35-2.66-4.36-3.71-5.99-.99-1.53-1.91-2.99-2.79-4.38-6.96-11.04-11.56-18.34-24.46-15.02-2.62,.67-9.56,2.46-14.99,3.52-4.23,.82-6.93,2.56-8.04,5.16-1.93,4.52,1.37,10.25,4.91,15.72,2.84,4.4,6.6,10.59,10.74,17.5-.59,1.58-.84,3.32-.62,4.98,.43,3.16,2.44,5.36,5.55,6.17h-.02s.04,0,.06,.01c.1,.02,.18,.06,.28,.08,.07,.3,.15,.74,.22,1.09,.49,2.72,1.46,8.07,8.03,10.19,.45,.74,.89,1.47,1.33,2.19,.18,1.13,.68,2.41,1.99,3.51,.1,.09,.2,.16,.31,.24,2.8,4.54,5.24,8.39,7.02,10.94,3.05,4.37,8.36,11.97,17.3,11.97,1.46,0,3.02-.2,4.69-.66,2.23-.61,5.28-1.14,7.97-1.61,2.71-.47,5.05-.88,6.53-1.33,3.09-.94,6.5-2.22,7.74-5.48,1.14-2.99,.26-7.04-2.86-12.86,5.15-.69,9.38-1.38,10.76-1.61,15.47,1.21,51.61,3.32,86.7,3.32,.34,0,.68,0,1.02,0-14.23,14.02-27.11,28.03-27.29,28.23l-.97,1.05,.49,.57c-3.25,2.74-6.04,4.78-8.13,5.42l-.55,.17c-4.12,1.27-11.02,3.4-20.94,4.94-12.83,1.99-15.12,3.63-20.43,14.64-.48,1-1.88,5.9-2.66,8.72-.19,.67-.36,1.28-.51,1.85-1.47-.18-2.8-.25-3.82-.14-1.97,.22-3.54,.04-5.37-.17-3.07-.35-6.88-.78-13.96,.58-1.23,.23-2.92,.31-4.7,.39-5.33,.24-11.96,.53-13.88,5.41-.14,.36-.8,1.44-1.38,2.38-2.71,4.43-3.8,6.53-2.89,8.03,.38,.62,1.05,.98,1.83,.98,.06,0,.11,0,.17,0,2.39-.16,4.49-.73,6.51-1.29,3.42-.93,6.37-1.74,10.14-.47,1.47,.49,4.43,.1,10.46-.77,1.98-.28,4.46-.64,7.02-.94-.45,.78-.96,1.65-1.58,2.66-1.8,2.96-1.79,7.26,.02,10.96,1.97,4.03,5.75,6.65,10.37,7.19,5.81,.68,15.64-3.97,20.8-6.69,.03,1.79,.51,4.11,2.7,5.89,3.51,2.85,7.87,1.23,10.21,.36,.04-.01,.08-.03,.11-.04,.46,1.16,1.17,2.01,2.09,2.53,2.16,1.22,4.76,.3,6.84-.44,.55-.19,1.31-.47,1.77-.56,.73,1.09,1.83,1.77,3.22,1.96,.28,.04,.56,.06,.85,.06,4.88,0,12.11-5.2,17.02-10.31,1.19-1.24,8.83-13.86,13.27-21.27,3.93-6.55,6.56-10.98,8.32-14.01,.53-.19,.92-.48,1.18-.75,1.09-1.1,6.6-6.01,15.07-13.47,4.29,15.15,9.36,32.88,14.39,50.3,6.38,22.07,11.9,40.89,15.97,54.41,2.35,7.81,3.99,13.21,5.19,16.95-.44,17.97-4.84,54.38-31.9,71.53-.24,.16-.47,.37-1.51,1.38-2.3,2.23-7.68,7.44-13.42,11.53-6.71,4.78-9.31,8.12-8.44,10.84,.97,3.04,5.75,3.39,9.26,3.39,1.77,0,3.86,.03,6.19,.06,2.96,.04,6.25,.08,9.73,.08,16.82,0,37.89-1.04,45.1-8.63,.8-.84,2.59-2.89,5.08-5.72,5.55-6.32,17.56-20.03,22.33-24.16,.12,9.44,.74,35.08,.78,35.87l.09,1.47,10.22,.31,.32-1.25c.55-2.15,.56-9.08,.5-18.63-.01-1.95-.02-3.83-.02-5.52,0-11.46,3.92-22.23,7.72-32.65,2.69-7.39,5.23-14.37,6.03-20.89,1.14-9.3-2.71-14.7-6.79-20.41-2.4-3.36-4.88-6.83-6.44-11.35l-.45-1.3-8.39,1.45c-3-19.66-11.72-111.87-10.81-126.26,3.7,.8,13.12,2.8,25.28,5.16,2.44,16.12,3.96,26.52,4.01,26.87l.21,1.41h.32c2.23,14.86,5.35,34.98,9.35,60.7,2.7,17.32,4.83,31,5.19,33.82l.13,1.02c5.07,39.67,8.42,65.87,23.93,75.99,4.69,3.06,10.45,4.59,17.53,4.59s14.73-1.39,24.13-4.17c19.37-5.73,79.2-27.58,116.48-41.29l.07,.03c4.88,2.22,9.36,4.13,13.32,5.8,21.42,9.08,30.4,12.88,34.86,37.18-.45,.46-1.24,1.22-2,1.96-4.26,4.09-11.38,10.95-13.45,16.15-3.08,7.75-3.62,9.39-2.8,10.82,.59,1.03,1.69,1.21,2.22,1.29,2.4,.38,11.49,.74,20.64,.74,1.43,0,2.87,0,4.28-.03,22.27-.3,22.75-2.61,23.06-4.14l1.32-6.37c4.07-19.65,5.59-27.01,4.65-33.28-2.93-19.69-15.17-38.41-21.05-47.4-.38-.57-.76-1.15-1.1-1.69,4.67,.94,11.84,2.11,16.34,2.83q15.75,2.5,16.45,1.65l.66-.81-.42-.86c-.12-.77,.47-3.8,1.3-6.57l.39-1.31-1.22-.6c-1.02-.5-12.68-3.95-20.13-5.96Zm-233.74,68.76c-14.26-9.3-17.53-34.91-22.48-73.69l-.13-1.02c-.36-2.86-2.5-16.56-5.2-33.9-2.73-17.52-6.42-41.26-9.28-60.26l94.73-1.47c.33,.75,.67,1.53,1.04,2.35,2.76,6.14,6.17,13.21,9.51,20.03-.42,2.39-.92,5.25-1.5,8.51-3.73,21.21-11.32,64.36-12.79,70.26-.28,.41-.4,.88-.35,1.35,.1,.97,.87,1.5,1.58,1.52,.81,.04,1.26-.34,1.57-1.05,6.42-3.44,73.15-8.64,93.02-9.39,.55-.02,1.13,0,1.71,.01l3.88,35.52c-37.24,13.7-97.05,35.54-116.34,41.25-18.27,5.41-30.65,5.4-38.97-.02Zm-71.2-205.77l-1.49-.33-.41,1.47c-2.3,8.14,7.71,109.62,10.55,129.2l-40.98,7.1c-7.36-23.59-23.73-80.28-34.71-119.07,5.21-4.59,11.35-9.99,18.14-15.95,18.96-16.66,42.66-37.49,65.29-57.59,3.61,22.63,6.91,44.09,9.39,60.46-15.03-2.93-25.58-5.25-25.78-5.29Zm-82.41,27.65c-2.5,2.23-4.11,3.7-4.66,4.26-.03,.01-.26,.08-.84-.1-1.54-.47-5.56-2.66-15-12.2-4.73-4.78-9.16-9.74-11.47-12.37-.27-.31-.52-.59-.72-.83,1.1-1.19,3.09-3.33,5.7-6.08,5.62-5.94,14.11-14.76,22.87-23.3,.55-.54,1.11-1.08,1.66-1.62,.57-.55,1.14-1.1,1.71-1.65,.32-.31,.64-.61,.96-.92,.49-.47,.98-.93,1.47-1.39,.51-.48,1.02-.96,1.52-1.43,2.42-2.26,4.81-4.44,7.11-6.45,13.73-12.04,27.55-26.91,41.32-43.19,.56-.67,1.13-1.34,1.69-2.01,.56-.67,1.12-1.34,1.68-2.01,10.81-12.96,21.58-26.73,32.25-40.62,.45-.58,.89-1.16,1.34-1.74,.44-.58,.89-1.16,1.33-1.74,3.65-4.76,7.28-9.53,10.9-14.27,4.51-5.92,8.95-11.74,13.32-17.43,.33-.43,.66-.86,.99-1.29,.33-.43,.66-.85,.99-1.28,4.75-6.16,9.4-12.12,13.96-17.84,.8-1.01,1.6-2.01,2.4-3,.83-1.03,1.66-2.06,2.49-3.08,3.43-4.21,6.79-8.25,10.09-12.09,.38-.44,.76-.88,1.14-1.32,.38-.44,.76-.88,1.14-1.31,.69-.79,1.38-1.57,2.06-2.34,.78-.38,1.61-.67,2.47-.88,1.89,.14,4.72,1.29,8.29,3.97,6.58,4.93,15.08,14.9,19.21,28.1,3.19,10.19,4.76,25.88-5.84,42.77-2.2,3.51-16.73,17.24-36.49,35.2-.62,.56-1.24,1.12-1.86,1.69-.64,.58-1.29,1.17-1.94,1.76-9.87,8.94-20.86,18.78-32.17,28.84-.48,.42-.95,.85-1.43,1.27-.48,.43-.96,.85-1.44,1.28-23.62,21-48.31,42.69-66.82,58.95-6.29,5.53-12.02,10.56-16.98,14.93-.45,.4-.9,.79-1.34,1.18-.46,.4-.9,.8-1.35,1.19-4.88,4.3-8.86,7.82-11.7,10.36Zm-98.04-64.31c-.58-2.59-1.17-5.6-1.71-8.65-1.27-7.13-2.28-14.46-2.25-17,.27-.09,.63-.18,1.05-.27,5.82-1.31,25.32-3.5,44.26-5.64,35.35-3.98,79.34-8.94,89.08-13.49,15.27-7.14,31.4-37.69,44.36-62.24,1.98-3.75,3.86-7.31,5.63-10.59-.05,2.38,.16,4.84,.64,7.35,1.11,5.8,2.27,12.06,3.45,18.64-12.11,15.79-24.35,31.47-36.62,46.03-5.55,1.22-10.98,2.54-16.26,3.96-26.49,7.16-34.65,27.9-33.72,47.28-1.77,1.67-3.55,3.37-5.33,5.09-34.91,.18-71.81-1.87-88.86-3.15-.56-.04-1.1-.08-1.62-.12-.58-.98-1.34-3.7-2.12-7.2Zm190.91-135.33c3.53-3.59,8.17-6.21,13.53-7.64,.54-.14,1.08-.27,1.63-.39,.36-.08,.73-.16,1.1-.22,.19-.04,.38-.07,.58-.11,9.48-1.78,17.23-4.78,23.26-8.2-1.63,2-3.28,4.05-4.94,6.13-.76,.95-1.51,1.9-2.28,2.86-.75,.94-1.5,1.89-2.25,2.84-3.26,4.14-6.58,8.41-9.93,12.76-.19,.25-.38,.49-.57,.74-2.18-1.35-2.69-2.3-2.76-3.04-.02-.28,.01-.53,.05-.75,.1-.65,.26-1.64-.49-2.52-.91-1.08-2.6-1.4-7.54-1.44v.61l-.02,1.73v.89c.84,0,1.54,.02,2.15,.05,1.47,.06,2.27,.15,2.69,.25-.06,.37-.08,.74-.08,1.12,0,.71,.15,1.43,.52,2.19,.55,1.1,1.6,2.25,3.49,3.48-4.19,5.45-8.45,11.04-12.76,16.7-3.02,3.97-6.06,7.95-9.1,11.93-1-5.54-1.99-10.82-2.94-15.78-1.06-5.54-.69-10.78,1.05-15.43,.7-1.87,1.61-3.65,2.75-5.31,.37-.54,.77-1.06,1.19-1.58,.53-.65,1.08-1.28,1.67-1.87Zm7.16-26.25c-.45-.72-.94-1.5-1.51-2.29-.33-.45-.69-.91-1.08-1.35-.41-.46-.84-.9-1.33-1.31-1.39-1.17-3.14-2.09-5.43-2.41-11.03-1.55-20.06-7.93-25.45-17.98-2.94-5.49-4.75-12.51-6.66-19.93-.72-2.8-1.46-5.65-2.27-8.49l.49,.23-.97-1.87c-.48-1.61-.99-3.22-1.55-4.82-.18-.51-.36-1.02-.55-1.52-.19-.51-.38-1.02-.58-1.52-.21-.53-.41-1.07-.63-1.59-1.35-3.24-1.93-6.56-1.87-9.85-.09-.1-.19-.19-.28-.29-.45-.47-.88-.93-1.29-1.39-.15-.16-.29-.32-.43-.48-.34-.39-.66-.77-.97-1.16-.2-.24-.39-.48-.58-.72-5.3-6.81-6.61-13.14-4.4-20.15l3.09,.97c-1.72,5.44-.92,10.35,2.75,15.67,.09,.14,.18,.27,.27,.41,.29,.4,.6,.81,.93,1.22,.04,.05,.07,.09,.11,.14,.39,.49,.8,.98,1.24,1.47,.91,1.04,1.93,2.11,3.06,3.2l.1,.08c3.01,2.51,6.97,5.8,11.85,8.19,.73,.36,1.47,.69,2.24,1,.13,.05,.25,.12,.39,.17,.69,.27,1.37,.54,2.03,.82,34.08,14.18,34.86,39.85,35.2,50.94,.1,3.19,.16,5.04,1.23,5.81,.2,.15,.44,.26,.73,.33,.26,.06,.58,.14,1.05,.14,.63,0,1.55-.14,2.99-.64,1.44-.5,3.41-1.36,6.14-2.79,1.96-1.03,4.32-2.35,7.16-4.06,1.23-.74,2.57-1.56,4-2.45,1.49-.93,3.09-1.95,4.8-3.06,3.01,6.42,6.31,12.68,8.93,17.61,.13,.24,.26,.49,.39,.74-5.1,6.8-17.42,14.64-34.81,17.79-.17,.03-.33,.07-.49,.1-1.37-2.52-2.74-5.12-3.76-7.08-1.78-3.39-3.32-6.33-4.26-7.84Zm72.61-22.5c18.52,1.25,42.39,34.18,72.91,100.6-9.46-12.86-19.15-25.64-28.7-37.3,3.68-.7,3.55-2.49,3.07-8.94l-3.23,.24c.15,1.97,.34,4.62,.17,5.4-.18,.05-.47,.1-.71,.14-.46,.08-1,.18-1.63,.34-15.46-18.62-30.47-34.05-43.47-41.8l.74-.07,1.46,.52c.05-.13,.28-.73,.61-1.56,1.33-3.39,2.78-7.08,3.07-8.11l-3.11-.88c-.27,.96-2.09,5.59-2.97,7.81-.39,.98-.58,1.47-.67,1.77-6.88-3.94-13.18-5.68-18.66-4.51-.08,0-.16,0-.23,0,6.96-9.37,13.38-13.69,20.23-13.69,.37,0,.75,.01,1.12,.04Zm136.25,180.75c.87-.49,1.59-.91,2.14-1.22l.68,1.03c3.6,5.48,8.38,12.75,12.51,19.67,.51,.85,1.01,1.7,1.5,2.54,4.9,8.43,6.33,12.28,6.7,14.01,.14,.66,.13,1.01,.1,1.18-.3,.2-.63,.43-.99,.67-.61,.41-1.29,.89-2.05,1.42-.43,.3-.88,.61-1.35,.94-.43,.3-.87,.61-1.33,.93-.88,.62-1.82,1.27-2.82,1.97-5.09,3.57-11.93,8.35-19.66,13.62-.46,.31-.92,.62-1.38,.94-.46,.31-.92,.62-1.38,.94-.54,.36-1.07,.73-1.62,1.09l-1.37-3.04c-1.3-2.89-3.66-5.1-6.64-6.22-2.98-1.13-6.21-1.03-9.09,.27h0c-5.98,2.7-8.65,9.75-5.95,15.73l2.12,4.69,.72,1.61,.07,.15c-.79,.5-1.59,1-2.38,1.5-15.65,9.81-31.39,18.67-42.45,22.38-1.16-2.56-3.67-6.83-7.29-12.9l-.27-.45c-.32-.53-.66-1.1-1.01-1.69-.41-.69-.84-1.41-1.28-2.16-.82-1.38-1.67-2.84-2.54-4.34-.31-.53-.62-1.07-.92-1.6-.31-.53-.61-1.07-.91-1.6-2.52-4.46-4.85-8.85-6.01-11.83-.58-1.48-.88-2.61-.76-3.22,.03-.02,.07-.05,.1-.08,.06-.05,.13-.11,.2-.16,.08-.07,.17-.14,.26-.21,.09-.07,.19-.15,.28-.22,.1-.08,.2-.15,.31-.24,.1-.08,.22-.16,.33-.24,.12-.09,.23-.17,.36-.26,.12-.09,.25-.18,.37-.27,.13-.1,.26-.19,.4-.29,.13-.09,.27-.19,.41-.29,.15-.1,.29-.21,.45-.31,.15-.1,.3-.21,.45-.31,.16-.11,.32-.22,.49-.33,.16-.11,.32-.22,.49-.33,.18-.12,.35-.24,.53-.36,.17-.11,.35-.23,.52-.35,.19-.13,.38-.25,.58-.38,.18-.12,.36-.24,.54-.36,.21-.14,.42-.27,.63-.41,.18-.12,.36-.24,.55-.35,.23-.15,.46-.3,.7-.45,.19-.12,.39-.25,.58-.37,.24-.15,.47-.3,.72-.46,.21-.13,.42-.27,.63-.4,.25-.16,.49-.31,.75-.47,.2-.13,.41-.26,.62-.39,.27-.17,.55-.34,.83-.52,.2-.12,.4-.25,.6-.38,.18-.11,.35-.22,.53-.33,.12-.08,.24-.15,.36-.23,.21-.13,.42-.26,.63-.39,.24-.15,.48-.3,.72-.45,.06-.04,.13-.08,.19-.12,.23-.14,.47-.29,.7-.43,.26-.16,.51-.32,.77-.48l.12-.07c.26-.16,.53-.32,.79-.49,.28-.17,.57-.35,.86-.53,.26-.16,.53-.33,.8-.49,.3-.19,.6-.37,.91-.56,.23-.14,.47-.28,.7-.43,.35-.22,.71-.43,1.06-.65,.21-.13,.43-.26,.65-.39,.37-.22,.74-.45,1.11-.68,.26-.16,.52-.31,.78-.47,.34-.21,.68-.41,1.03-.62,.26-.15,.52-.31,.77-.47,.37-.22,.74-.45,1.12-.67,.2-.12,.41-.24,.61-.37,.42-.25,.84-.5,1.26-.76,.23-.14,.47-.28,.7-.42,.41-.24,.82-.49,1.23-.73,.19-.11,.39-.23,.58-.35,.45-.27,.91-.54,1.37-.82,.18-.11,.37-.22,.55-.33,.47-.28,.93-.56,1.4-.84,.21-.13,.42-.25,.63-.38,.44-.26,.87-.52,1.31-.78,.27-.16,.53-.32,.8-.47,.4-.24,.81-.48,1.21-.72,.23-.13,.45-.27,.68-.4,.44-.26,.88-.52,1.32-.78,.24-.14,.47-.28,.71-.42,.44-.26,.88-.52,1.32-.78,.25-.15,.5-.3,.76-.45,.41-.24,.82-.48,1.23-.73,.28-.16,.56-.33,.84-.49,.42-.24,.83-.49,1.25-.73,.16-.09,.31-.18,.47-.27,.51-.3,1.03-.6,1.54-.91l.65-.38c.46-.27,.92-.54,1.38-.81,.15-.09,.29-.17,.44-.26,6.29-3.68,12.49-7.29,18.21-10.6,.48-.28,.95-.55,1.42-.82,.47-.27,.95-.55,1.41-.82,7.03-4.06,13.16-7.59,17.57-10.11,.33-.19,.65-.37,.96-.55,.49-.28,.96-.55,1.4-.8,.3-.17,.58-.33,.85-.49,.19-.11,.37-.21,.55-.32Zm32.61,63.76c-.55,.37-1.2,.81-1.92,1.31-.46,.32-.96,.66-1.49,1.03-1.44,1-3.12,2.18-4.99,3.49-15.41,10.79-46.68,32.7-70.96,45.53-6.7,3.54-12.87,6.39-18.03,8.12-1.23-2.94-4.15-8.84-8.62-17.85-.72-1.45-1.49-3.01-2.31-4.66l1.29-.39c12.01-3.67,29.51-13.57,46.73-24.46,1.37,2.35,3.48,4.15,6.07,5.13,1.38,.52,2.81,.78,4.23,.78,1.66,0,3.31-.35,4.86-1.05,2.89-1.3,5.1-3.66,6.22-6.64,.01-.03,.02-.05,.03-.08,.2-.53,.35-1.08,.47-1.63,.12-.54,.21-1.08,.25-1.62,.15-1.96-.18-3.93-1.01-5.77l-1.03-2.28c.47-.32,.95-.64,1.42-.95,.47-.32,.92-.63,1.38-.94,.46-.31,.92-.63,1.38-.94,7.81-5.32,14.84-10.24,20.37-14.11,.82-.58,1.6-1.12,2.34-1.64,.46-.32,.91-.63,1.34-.93,.47-.33,.92-.64,1.35-.94,.75-.52,1.43-1,2.05-1.42,5.13,11.13,8.88,20.49,8.59,22.91Zm-102.38,62.2c-1.23-2.95-4.15-8.84-8.62-17.85-1.56-3.15-3.4-6.85-5.32-10.77-.4-.81-.8-1.64-1.21-2.47-.4-.82-.8-1.64-1.2-2.47-2.8-5.77-5.64-11.74-8-17.01-.24-.54-.48-1.08-.71-1.61-.24-.55-.47-1.08-.7-1.61-2.67-6.15-4.43-10.92-4.27-12.53,.45-.38,1.05-.84,1.78-1.37,.16,.96,.5,2.1,1.03,3.46,.78,2.44,2.08,5.78,4.1,10.4,.23,.52,.46,1.06,.71,1.61,.19,.44,.39,.88,.6,1.34,.04,.09,.08,.18,.12,.27,1.83,4.06,3.93,8.51,6.11,13.03,.39,.81,.78,1.62,1.17,2.42,.4,.82,.8,1.64,1.2,2.46,2.3,4.72,4.61,9.37,6.7,13.58,4.19,8.45,7.85,15.82,8.79,18.31-.78,.29-1.54,.56-2.28,.81Zm-192.73-164.38c-12.76,14.9-25.53,28.47-38.2,39.58-1.67,1.46-3.38,3.01-5.12,4.61,.06-17.23,8.1-34.9,31.39-41.2,3.9-1.05,7.88-2.05,11.93-2.99Zm65.44,86.07c-.08-.56-.17-1.13-.26-1.7-.09-.61-.19-1.22-.28-1.84-.11-.72-.22-1.45-.33-2.18-2.5-16.48-5.76-37.56-9.29-59.64,1.41-1.25,2.81-2.5,4.21-3.75,.48,.95,1.12,1.93,1.81,2.98,1.32,2.01,2.82,4.28,2.82,6.15h3.24c0-2.83-1.78-5.54-3.35-7.93-.8-1.22-1.68-2.56-1.97-3.48,10.63-9.48,20.82-18.62,29.93-26.91,.65-.59,1.29-1.17,1.92-1.75,.61-.56,1.23-1.12,1.83-1.67,8.5-7.75,15.91-14.63,21.66-20.15l8.32,19.49,.67,1.57,.71,1.67,4.1,9.61,.72,1.69,.72,1.69,10.08,23.61,.81,1.91,.81,1.91,26.21,61.37c-5.01,3.2-8.67,5.71-10.25,7.11-1.22,1.09-1.79,3.06,3.16,14.8l-14,.22c.72-2.33,1.82-5.8,2-6.24l-1.47-.67-1.25-1.03c-.4,.48-1.97,5.59-2.69,7.99l-76.41,1.19h-.32c-.48-3.27-1.78-12.07-3.64-24.34-.08-.56-.17-1.12-.26-1.69Zm178.96,5.84c2.17,.82,3.89,2.43,4.83,4.53l1.59,3.54,.68,1.5,.68,1.5,.8,1.78c.64,1.42,.87,2.96,.7,4.49-.06,.55-.17,1.09-.34,1.62-.05,.17-.1,.34-.17,.51-.15,.39-.33,.76-.53,1.12-.9,1.64-2.28,2.94-4,3.71-2.1,.94-4.45,1.01-6.62,.19-1.87-.71-3.39-1.99-4.38-3.67-.03-.05-.06-.11-.1-.16-.13-.22-.25-.45-.35-.69l-.34-.75-.02-.04-.68-1.51-.03-.06-2.69-5.97c-1.96-4.35-.02-9.49,4.33-11.45h0c2.1-.94,4.45-1.01,6.62-.19Zm-60.76,40.83c1.27,2.26,2.18,4.03,2.42,4.92h0c-.78-1.58-1.6-3.23-2.43-4.92Zm34.22-131.58c-.92-.08-1.71,.06-2.4,.44-1.54,.85-2,2.54-2.36,3.91-.32,1.2-.57,1.99-1.06,2.16l1.06,3.06c2.14-.74,2.71-2.84,3.12-4.38,.21-.77,.47-1.73,.8-1.91,.18-.1,.65-.11,1.46,.14l.34-1.1c5.87,14.15,11.96,29.38,18.27,45.66-9.1,5.25-19.97,11.56-30.67,17.86-.05-.12-.09-.25-.14-.37-1.13-2.93-1.57-4.08,.61-6.57l.15-.07-.03-.07s.07-.07,.1-.11l-.25-.23-1.12-2.56-.79,.35-.23,.25c-3.79,4.14-2.71,6.93-1.46,10.17,.11,.28,.22,.57,.33,.87-6.42,3.79-12.71,7.54-18.43,11.01-.55,.34-1.1,.67-1.64,1-.57,.35-1.14,.69-1.7,1.04-3.06,1.87-5.91,3.63-8.49,5.26l-27.01-63.27-.81-1.91-.81-1.91-9.75-22.84-.72-1.69-.72-1.69-2.85-6.69-.71-1.67-.67-1.57-9.36-21.93c5.39-5.25,8.94-8.98,9.99-10.66,11.26-17.94,9.58-34.62,6.19-45.46-4.36-13.93-13.37-24.49-20.35-29.72-.31-.23-.62-.45-.93-.67,9.91,3.19,22.87,13.54,38.73,30.99,3.76,4.13,7.56,8.53,11.39,13.1-.33,.16-.67,.34-1.03,.55-2.81,1.6-2.14,4.55-1.73,6.31,.13,.55,.32,1.39,.25,1.65,0-.01,.02-.06,.06-.11l2.49,2.06c1.06-1.27,.68-2.9,.35-4.33-.47-2.03-.37-2.46,.18-2.77,.57-.32,1.08-.58,1.56-.79,12.98,15.74,26.14,33.49,38.59,50.65,3.95,8.94,8.03,18.46,12.23,28.55Zm-1.81-14.13c19.11,26.51,31.85,43.95,39.9,51.29-3.42,1.95-9.08,5.19-16.01,9.19-8.92-23-17.42-43.91-25.44-62.62,.52,.72,1.04,1.44,1.55,2.15Zm-426.47,49.35c.14,.03,.28,.05,.42,.07,.65,.11,1.34,.2,2.04,.25,.49,.04,.98,.07,1.47,.07,.72,0,1.43-.05,2.11-.16,1.2-.2,3.17-.35,5.25-.51,1.99-.15,4.04-.3,5.66-.53,.79-.11,1.71-.24,2.69-.38l.39-.06c1.03-.15,2.11-.3,3.2-.45,2.18-.3,4.34-.57,5.85-.67h.06c3.99,.08,7.04,1.01,7.96,2.43,.14,.22,.53,.82,.15,2.12-1.65,.49-3.13,.72-4.68,.95-1.71,.26-3.47,.52-5.44,1.17-.36,.12-1.17,.32-2.8,.63-.83,.16-1.88,.36-3.18,.59-2.87,.51-6.99,1.2-12.9,2.14-.27,.04-.53,.09-.77,.14-.2-.04-.39-.08-.59-.12-.9-.2-1.69-.47-2.36-.78-3.45-1.63-4.1-4.57-4.53-6.92Zm9.3,10.8c5.53-.88,9.8-1.59,12.88-2.15,1.29-.23,2.37-.44,3.26-.62,1.32-.27,2.22-.48,2.7-.64,1.71-.56,3.26-.8,4.91-1.05,1.44-.22,2.91-.44,4.53-.88,.13,.63,.21,1.59,0,2.98-.04,.26-.06,.5-.08,.73-.01,.16-.03,.38-.04,.42-.51,.67-4.8,1.88-8.95,2.93-1.24,.31-2.46,.62-3.56,.89-.56,.14-1.09,.26-1.58,.38-1.09,.26-2.08,.55-3.04,.82-3.94,1.12-6.42,1.83-9.47-.38-.22-.16-.45-.33-.68-.53-.72-.6-.91-1.27-.92-2.08,0-.26,0-.54,.03-.83Zm-22.33-45.58c-.83,.46-2.14-.34-2.93-1.78-.79-1.44-.76-2.97,.07-3.43,.83-.46,2.14,.34,2.93,1.78,.79,1.44,.76,2.97-.07,3.43Zm7.2,24.4c.19-.65,.46-1.26,.8-1.81,.33-.55,.71-1.03,1.15-1.41,1.32,1.36,2.02,2.18,2.47,2.71,.83,.97,1.29,1.44,2.63,1.34,.21-.01,.46-.04,.86-.02,3.33,.11,9.99,.15,17.73-.85,.24-.03,.48-.06,.72-.09,.88-.12,1.72-.18,2.51-.2,3.94-.09,6.76,.89,7.16,1.46,.68,1.13,.36,1.83-1.67,3.56-.06,.05-.1,.09-.16,.14-1.48,.12-3.37,.35-5.3,.61-1.09,.15-2.18,.3-3.22,.45-.22,.03-.45,.06-.67,.1-.98,.14-1.89,.27-2.67,.38-1.52,.21-3.52,.36-5.46,.51-2.16,.16-4.2,.32-5.55,.54-1.6,.27-3.54,.05-5.17-.26-.83-.16-1.58-.34-2.17-.49h-.01c-.16-.07-.32-.12-.51-.15-.14-.02-.27-.06-.4-.09-.17-.05-.32-.08-.44-.1-.37-.11-.7-.26-1-.43-1.08-.62-1.73-1.61-1.92-2.99-.01-.08,0-.16-.01-.24-.08-.86,.04-1.78,.3-2.65Zm60.9,24.74c-.05-.09-.1-.17-.15-.25-6.49-10.7-12.31-20.63-16.99-28.61-2.45-4.17-4.64-7.92-6.58-11.17,1.91-1.86,3.3-3.59,3.42-5.32,.07-1.01,.19-1.98,.3-2.91,.45-3.76,.88-7.31-1.56-12.75-1.81-4.04-.98-6.69,.05-8.2,.88-1.31,2.04-1.94,2.59-2.08,3.4,3.98,4.7,8.84,6.65,16.09,.28,1.05,.57,2.14,.89,3.28,3.16,11.53,8.69,14.04,12.72,15.86,1.01,.46,1.82,.84,2.44,1.25,.05,5.58,3.27,26.53,5.93,33.43-2.98,.47-6.32,.96-9.72,1.4Zm35.54,68.86c.87-.73,4.81-1.37,8.21-1.74-1.55,1.65-3.06,3.52-4.61,5.46-.74,.92-1.5,1.87-2.29,2.82-.24-.1-.5-.2-.77-.3-.81-.3-1.96-.73-3.44-1.46,1-1.43,1.91-3.03,2.83-4.66l.07-.13Zm-13.25,17.06l.1-.34c.12-.42,.21-.83,.28-1.25,.47,.18,.83,.41,1.05,.7,.3,.39,.75,.83,1.44,1.12-.26,.16-.51,.32-.78,.47-1.11,.65-2.04,1.16-2.8,1.56,.28-.76,.51-1.53,.72-2.26Zm59.18,9.77c-5.33,5.55-12.09,9.72-15.09,9.29-.53-.07-.85-.29-1.07-.71-.52-.99-1.34-1.32-2.25-1.32-1.03,0-2.18,.41-3.21,.78-1.39,.49-3.29,1.17-4.16,.67-.53-.3-.81-1.15-.94-1.81-.11-.52-.43-.97-.89-1.22-.88-.49-1.76-.17-3.09,.33-1.98,.73-4.97,1.85-7.05,.16-1.38-1.12-1.57-2.59-1.49-4.09,.48-.28,1.33-.68,2.05-1.03,2.18-1.04,5.15-2.45,7.42-4.42l.24-.11-1.35-2.94-.68,.31-.18,.17c-1.95,1.75-4.77,3.09-6.84,4.07-.49,.23-.91,.43-1.28,.62-.01,0-.02-.02-.03-.03-.55-.36-1.23-.37-1.83-.04-8.99,5.05-17.3,8.03-21.19,7.57-4.8-.56-6.97-3.63-7.84-5.4-1.31-2.69-1.38-5.85-.16-7.86,1.22-2.01,2.1-3.54,2.74-4.74,2.26-.18,4.41-.27,6.19-.17-.05,.3-.11,.6-.2,.9l-.1,.34c-.46,1.59-.93,3.24-1.95,4.23-1.54,1.49-.87,2.65-.63,2.98,1.02,1.35,2.6,1.13,9.4-2.81,3.06-1.77,5.66-3.85,7.95-6.05,.92-.69,1.68-1.39,2.18-1.95,.31-.35,.59-.66,.83-.94,.72-.8,1.24-1.4,1.52-1.98,1.12-1.32,2.17-2.63,3.18-3.89,2.7-3.37,5.03-6.28,7.63-8.13l.9-.64-.54-2.13-1.09-.15c-.13,0-13.95,.36-15.8,3.64l-.12,.21c-1.15,2.04-2.16,3.75-3.17,5.08-2.08-.55-4.61-1.17-7.05-1.63,1.12-4.09,2.52-8.93,2.87-9.68,4.85-10.05,6.2-11.01,18.01-12.85,10.15-1.58,17.19-3.75,21.39-5.04l.55-.17c2.6-.8,5.67-3.02,9.29-6.06,5.57,6.4,19.73,22.1,27.3,25.24-6.56,11.19-18.95,31.82-20.37,33.4Z"/><rect class="d" x="135.85" y="194" width="152" height="151"/><rect class="d" x="284.85" y="251" width="49" height="68"/><rect class="d" x="331.85" y="209" width="49" height="68" transform="translate(460.62 -175.53) rotate(69.7)"/><rect class="d" x="280.62" y="270.51" width="49" height="68" transform="translate(736.19 304.08) rotate(135)"/><rect class="d" x="374.84" y="196.97" width="34.77" height="49.99" transform="translate(599.85 621.98) rotate(-146.94)"/><rect class="d" x="383.48" y="179.97" width="34.77" height="49.99" transform="translate(625 595.44) rotate(-146.94)"/><polygon class="d" points="430.33 178.28 429.18 188.18 425.85 196 417.85 191 430.33 178.28"/></svg>