<?xml version="1.0" encoding="UTF-8"?><svg id="b" xmlns="http://www.w3.org/2000/svg" viewBox="0 0 843.93 959.77"><defs><style>.e,.f,.g{fill:#fff;}.e,.g,.h{stroke:#000;stroke-miterlimit:10;}.e,.h{stroke-width:5px;}.g{stroke-width:4px;}.h{fill:none;}</style></defs><g id="c"><path d="M638.03,169.49l.65-1.42c3.05-6.59,6.07-11.56,9.07-14.91,3-3.35,6.18-5.7,9.53-7.06,3.35-1.36,7.11-2.3,11.28-2.83,2.86-.37,5.55-.99,8.08-1.84,2.53-.85,4.77-2.08,6.73-3.68,1.96-1.6,3.52-3.67,4.69-6.23,1.31-2.88,1.78-5.69,1.39-8.43-.39-2.73-1.45-5.2-3.2-7.41-1.75-2.21-4.03-3.95-6.84-5.23-2.59-1.18-5.3-1.74-8.13-1.68-2.83,.06-5.51,.86-8.05,2.42-2.54,1.55-4.68,4.01-6.43,7.36l-19.49-8.88c3.34-6.85,7.67-11.89,13-15.11,5.32-3.22,11.15-4.79,17.49-4.73,6.34,.07,12.7,1.56,19.09,4.47,6.97,3.18,12.56,7.2,16.76,12.06,4.2,4.87,6.76,10.23,7.68,16.09,.92,5.86-.02,11.88-2.83,18.05-1.9,4.16-4.26,7.58-7.09,10.26-2.83,2.68-6.05,4.74-9.66,6.18-3.61,1.44-7.55,2.4-11.82,2.88-3.79,.48-7.07,1.27-9.85,2.39-2.78,1.11-5.22,2.79-7.32,5.03-2.1,2.24-4.05,5.29-5.85,9.14l-.65,1.42-18.24-8.31Zm-6.04,38.51c-3.29-1.5-5.58-3.95-6.89-7.37s-1.2-6.81,.33-10.16c1.5-3.29,3.96-5.56,7.4-6.81,3.44-1.26,6.8-1.13,10.08,.36,3.25,1.48,5.54,3.93,6.86,7.36,1.33,3.43,1.24,6.78-.25,10.07-1.01,2.23-2.49,4-4.44,5.32-1.95,1.32-4.07,2.11-6.36,2.36-2.3,.25-4.54-.12-6.73-1.12Z"/><path d="M416.62,185.74l-.46-.93c-2.1-4.35-3.38-8-3.84-10.96-.46-2.96-.33-5.58,.39-7.88,.71-2.3,1.81-4.63,3.3-6.99,1.01-1.63,1.84-3.27,2.46-4.93,.63-1.66,.94-3.33,.95-5.01,0-1.68-.4-3.36-1.23-5.04-.93-1.89-2.18-3.31-3.75-4.27-1.57-.95-3.29-1.45-5.16-1.48-1.87-.03-3.73,.41-5.58,1.31-1.7,.84-3.13,1.99-4.29,3.47-1.16,1.48-1.88,3.2-2.15,5.16-.27,1.96,.09,4.1,1.07,6.41l-12.79,6.28c-2.11-4.61-2.88-8.96-2.29-13.06,.59-4.1,2.24-7.76,4.95-10.99,2.71-3.23,6.16-5.88,10.35-7.93,4.58-2.25,9-3.42,13.27-3.53,4.27-.11,8.11,.84,11.52,2.84,3.4,2,6.1,5.02,8.09,9.07,1.34,2.73,2.1,5.39,2.29,7.97,.18,2.59-.12,5.11-.9,7.57-.78,2.47-1.95,4.9-3.51,7.3-1.35,2.15-2.33,4.18-2.93,6.07-.6,1.9-.77,3.86-.5,5.89,.27,2.03,1.01,4.31,2.23,6.86l.46,.93-11.96,5.87Zm17.26,19.35c-2.16,1.06-4.39,1.2-6.7,.43s-4.01-2.25-5.09-4.46c-1.06-2.16-1.18-4.38-.38-6.68,.8-2.3,2.28-3.98,4.44-5.03,2.13-1.05,4.36-1.19,6.68-.43,2.32,.76,4.01,2.22,5.07,4.38,.72,1.46,1,2.97,.86,4.53-.14,1.56-.63,2.98-1.47,4.27-.84,1.29-1.98,2.29-3.41,2.99Z"/><path d="M507.43,87.66l.25-1.57c1.19-7.29,2.8-12.98,4.84-17.08,2.03-4.1,4.5-7.27,7.42-9.52,2.91-2.24,6.34-4.19,10.28-5.84,2.7-1.14,5.17-2.48,7.42-4,2.24-1.52,4.11-3.34,5.6-5.44,1.49-2.1,2.45-4.56,2.9-7.38,.5-3.18,.19-6.06-.93-8.63-1.12-2.57-2.84-4.7-5.15-6.39-2.32-1.69-5.03-2.78-8.13-3.27-2.86-.45-5.67-.26-8.42,.56-2.75,.83-5.16,2.34-7.23,4.56-2.06,2.21-3.5,5.2-4.3,8.96l-21.52-3.4c1.41-7.62,4.28-13.74,8.63-18.34,4.34-4.6,9.63-7.73,15.86-9.39,6.23-1.66,12.87-1.93,19.92-.82,7.7,1.22,14.26,3.64,19.7,7.26,5.44,3.63,9.4,8.19,11.9,13.68,2.5,5.5,3.21,11.65,2.13,18.46-.73,4.59-2.11,8.59-4.15,11.98-2.05,3.39-4.64,6.29-7.78,8.68-3.15,2.4-6.75,4.41-10.8,6.04-3.58,1.5-6.59,3.17-9,5.02-2.42,1.85-4.35,4.16-5.8,6.92-1.45,2.77-2.53,6.28-3.25,10.55l-.25,1.57-20.13-3.18Zm4.56,39.38c-3.63-.57-6.55-2.36-8.76-5.35s-3.03-6.34-2.44-10.05c.57-3.63,2.37-6.52,5.4-8.69,3.03-2.16,6.35-2.96,9.98-2.39,3.59,.57,6.5,2.35,8.73,5.34,2.23,3,3.06,6.31,2.49,9.93-.39,2.46-1.36,4.6-2.9,6.42-1.55,1.82-3.41,3.17-5.59,4.04-2.18,.87-4.48,1.12-6.9,.74Z"/></g><g id="d"><path class="f" d="M185.3,957.32c11.78,.43,28.04,.41,44.12,.06h0c29.18-.63,57.8-2.31,58.2-4.24,3.97-.7,2.48-138.64-.67-147.41-3.44-9.57-38.63-4.65-48.9-4.65-12.52,0-31.12-.64-43.71,.33-10.15,.78-19.34,2.98-19.96,14.38-1.85,33.88-.18,88.14-.12,126.64,.01,9.69-.4,14.48,11.04,14.9Z"/><path class="f" d="M145.3,564.21c18.51-9.7,15.46-25.94,28.67-40.42l-40.31,25.89c-7.96,10.83,1.33,19.95,11.65,14.53Z"/><path class="f" d="M127.2,522.83l29.23-82.9,18.79,84.36,34.45-6.31c-7.54,17.29-14.16,35.67-19.35,54.22-8.2,29.25-25.67,140.89-17.86,161.4l7.51,.06c-2.7,3.98-66.52,68.44-40.72,66.05,19.11-1.77,40.49-2.53,62.15-1.7,3.1,.12,30.31,.06,58.39-.56,3.5-.08,10.02-13.93,13.5-14.03,4.06-.11,5.08,13.53,8.99,13.39,22.94-.82,41.93-2.13,42.46-4.18,.44-1.72,3.97-49.35,4.39-57.82h.73l-.72-29.04,32.07,5.02c-4.19,68.73-8.58,159.26-3.75,171.93h34.75c-12.97,11.74-77.42,66.24-48.12,64.04,23.57-1.77,49.94-2.53,76.65-1.7,3.82,.12,37.39,.06,72.01-.56,4.32-.08,12.36-13.93,16.65-14.03,5.01-.11,6.27,13.53,11.08,13.39,28.29-.82,51.71-2.13,52.37-4.18,.59-1.85,5.58-56.87,5.47-59.04h-.21c1.4-11.96-.43-73.55-.83-113.14,1.28,4.08,115.67,1.56,127.25,1.56,75.66,0,96.4-49.03,109.61-113.24,12.59-61.19,26.84-152.9,27.64-173.61,1.07-27.69-25.46-52.1-54.75-55.77-25.93-3.25-106.09-3.84-134.03-1.32h0c-37.4-73.65-77.72-91.65-103.99-82.98-.23-5.03-.64-10.02-1.24-14.86-1.38-11.04-2.41-27.05-3.09-42.48,3.32,.39,2,.69,5.51,.69,8.79,0,19.18-46.69,21.86-55.82,4.56-15.51,2.43-35.53-10.65-45.56-17.54-13.44-69.01-32.78-87.92-25.03-32.48,13.31-21.71,40.22-.35,47h0c-7.09,7.67-13.61,17.92-18.9,30.46-2.79-2.07-6.21-3.3-9.92-3.3-9.34,0-16.91,7.72-16.91,17.25s7.57,17.25,16.91,17.25c.17,0,.34-.02,.51-.03-2.25,11.3-3.63,23.66-3.88,36.98-.48,25.95,40.38,26.35,40.5,27.34,1.02,8.32,8.53,32.92,10.52,48.12h0c-10.49-5.43-30.09-8.3-69.87-.92l-37.8,7c-2.52-1.85-5.21-4.13-8.35-7.34-12.85-13.1,3-40.54-25.76-49.69-.27-1.45-.53-2.94-.76-4.46l-13.81-83.56c-1.14-3.42-2.62-12.15-12.05-11.08l-44.97,5.95c-15.15,1.76-12.51,10.86-10.36,23.72l3.94,26.87c-14.8,2.94,.46,34.59,2.22,40.13-10.87-22.66-18.04-1.75-9.71,19.62,7.45,19.11,12.7,35.84,31.73,56.11l-142.44,26.39,2.45,11.01c-39.47,5.67-75.14,26.65-92.08,52.54l-40.27-6.42-2.81,13,36.46,6.14c-2.68,6.88-4.01,13.97-3.74,21.1,.44,11.63,12.81,7.37,13.44,14.08,1.39,14.94,19.9,14.2,21.56,4.35-.2,.91-2.61,16.9,2.47,23.01,6.04,7.27,17.48,8.54,22.49-7.07-.14,.83-.22,1.45-.22,1.79m244.56-71.71l40.11,24.44c-7.19,16.17-13.59,33.36-18.78,50.78-7.2-14.97-13.85-29.28-15.25-32.31-5.57-12.1-14.43-26.26-25.24-39.4l19.16-3.51Zm218.98,276.77c-.07-7.06-.1-13.41-.05-18.66l4.11,.32-4.06,18.34Z"/><path d="M504.39,253.59c0-10.68-8.54-19.38-19.04-19.38s-19.04,8.69-19.04,19.38,8.54,19.38,19.04,19.38,19.04-8.69,19.04-19.38Zm-19.04,15.12c-8.15,0-14.79-6.78-14.79-15.12s6.63-15.12,14.79-15.12,14.79,6.78,14.79,15.12-6.63,15.12-14.79,15.12Z"/><path d="M236.2,820.12c-1.19,11.23-1.34,26.64-1.34,38.82v1.46c-.01,7.19-.02,10.8,2.35,13.04,1.52,1.44,3.65,1.89,6.92,1.89,1.01,0,2.13-.04,3.37-.11,1.82-.1,4.38-.11,7.09-.12,3.96-.01,8.06-.02,10.46-.35,7.83-1.06,10-2.74,10.58-8.15,.03-.29,.74-41.89,.15-45.13-1.62-8.96-6.85-8.84-17.27-8.61-.95,.02-1.96,.04-3.03,.06-1.73,.03-3.42-.04-5.06-.1-6.28-.24-13.39-.53-14.22,7.28Z"/><path d="M264.74,884.78c-1.64,0-3.49-.02-5.51-.14-12.13-.73-19.02,.39-22.34,3.64-2.34,2.29-2.5,5.2-2.42,7.19,.33,8.25,.13,24.05,0,34.5-.07,5.31-.12,9.16-.08,10.4,0,1.13,.44,2.15,1.24,2.95,2.45,2.44,7.9,2.43,15.46,2.41,1.92,0,3.89-.01,5.86,.03h.13c1.17,.03,2.38,.05,3.61,.05,7.75,0,15.86-1.03,16.59-9.83,.82-9.89,.68-31.05,.22-41.28-.44-9.86-6.15-9.89-12.75-9.92Z"/><path d="M264.75,352.49c6.3,16.43,12.02,31.31,27.49,48.65l-138.65,25.69-2.17,.4,2.44,10.96c-26.5,4.22-52.44,15.57-71.48,31.37-7.79,6.46-14.18,13.39-19.07,20.59l-40.88-6.52-3.7,17.15,36.12,6.09c-2.2,6.47-3.22,13.01-2.98,19.51,.3,8.08,5.8,10.02,9.43,11.3,3,1.06,3.89,1.57,4.02,2.89,.83,8.97,7.31,13.22,13.36,13.44,2.81,.1,5.4-.59,7.5-1.87-.19,5.65,.33,12.94,3.67,16.95,3.17,3.8,7.45,5.95,11.63,5.95,.86,0,1.71-.09,2.55-.27,3.03-.66,8.29-3.19,11.58-12.32h.28c0-.24,.05-.66,.13-1.21,.19-.58,.37-1.17,.54-1.81l-.2-.05c1.55-7.93,6.51-27.51,8.01-30.19,2.97-5.27,8.94-8.06,12.78-7.61,2.01,.23,3.29,1.25,3.9,3.1,0,1.84-.31,13.28-8.03,22.36-6.05,7.12-5.02,13.61-2.3,17.01,2.05,2.56,5.09,3.88,8.47,3.88,2.29,0,4.73-.61,7.11-1.86,11.57-6.07,15.16-14.43,18.96-23.29,2.3-5.37,4.69-10.91,9.08-16.18l31.85-5.84c-7.01,16.51-13.11,33.76-17.9,50.84-7.57,27.02-26.05,141.04-17.8,162.73l.52,1.36,4.34,.03c-.82,.9-1.74,1.9-2.68,2.93-27.58,30.09-45.12,51.82-41.03,60.05,1.04,2.1,3.17,3.16,6.33,3.16,.48,0,.98-.02,1.51-.07,16.15-1.5,33-2.16,49.4-1.98-7.11,1.09-15.96,4.28-16.59,15.82-1.29,23.74-.88,56.74-.48,88.66,.17,13.63,.33,26.51,.35,38.11v.99c0,9.02,0,15.54,13.09,16.03,5.94,.22,13.21,.32,21.21,.32,13.07,0,28.08-.29,42.32-.83,34.66-1.33,39.7-2.9,40.69-4.57,.09-.11,.18-.24,.27-.39,2.67-4.59,2.54-53.16,2.36-73.82-.22-25.3-1.12-69.6-3.12-75.15-2.17-6.04-12.37-7.46-25.5-7.28,1.43-1.37,2.96-3.44,4.85-6.07,1.48-2.06,3.9-5.44,5.04-6.06,.8,.63,1.93,3.68,2.55,5.36,1.47,3.98,2.99,8.06,6.47,7.98,43.35-1.54,43.88-3.6,44.44-5.77,.63-2.42,3.47-43.85,4.28-56.21h.96l-.71-28.69,27.63,4.33c-4.17,68.12-8.51,157.71-3.49,170.89l.52,1.37h30.63c-.27,.24-.54,.48-.82,.72-33.28,29.44-54.68,50.86-50.95,59.69,1.03,2.45,3.61,3.68,7.67,3.68,.55,0,1.12-.02,1.73-.07,25.06-1.88,51.48-2.47,76.43-1.7,3.88,.12,37.49,.07,72.12-.55,3.1-.06,6.26-3.62,9.91-7.75,1.92-2.17,5.49-6.21,6.75-6.28h.01c1.13,0,2.71,3.48,3.66,5.56,1.78,3.91,3.65,7.96,7.42,7.84,53.02-1.53,53.66-3.54,54.33-5.66,.91-2.85,5.58-59.43,5.56-59.8l-.08-1.48c.35-4.31,.46-12.15,.34-26.61h15.64l13.78,92.77c-2.97,2.37-6.52,5.31-7.19,6.08,2.15-.33,20,.7,19.79-.02,0,0-.01-.02-.02-.03,2.02,.04,4.6,.12,7.1,.18l1.07,.16,.02-.13c4.3,.11,8.08,.15,7.98-.18-.23-.83-4.49-5.07-6.85-7.51l12.74-86.46h129.34l16.33,86.7c-2.4,2.47-6.39,6.47-6.61,7.27-.2,.72,17.64-.31,19.79,.02-.8-.92-5.77-4.98-8.88-7.41l-34.88-185.2c9.44-5.26,17.6-12.18,24.54-20.83,17.79-22.15,26.07-53.68,31.81-81.6,12.8-62.23,26.9-153.67,27.68-173.96,1.06-27.44-24.86-53.98-56.61-57.97-24.68-3.1-102.95-3.91-133.05-1.45-16.8-32.8-35.18-56.6-54.7-70.8-16.61-12.09-33.73-16.54-48.56-12.73-.24-4.26-.61-8.41-1.1-12.33-1.3-10.41-2.29-25.25-2.96-39.65,.68,.16,1.38,.24,3.26,.24,7.51,0,14.01-19.3,22.07-50.45,.79-3.05,1.41-5.46,1.83-6.9,4.52-15.37,2.88-36.9-11.4-47.84-17.42-13.34-70.08-33.48-90.02-25.31-19.62,8.04-22.11,19.82-21.85,26.14,.4,9.83,7.92,19.22,18.65,23.73-3.19,3.74-6.23,7.98-9.08,12.69-2.59,4.28-4.96,8.88-7.11,13.74-2.68-1.46-5.73-2.3-8.98-2.3-10.5,0-19.04,8.69-19.04,19.38,0,9.99,7.47,18.24,17.03,19.27-2.07,11.09-3.26,22.81-3.48,34.9-.44,23.64,29.56,27.63,39.43,28.94,.44,.06,.9,.12,1.3,.18,.65,3.89,2.14,9.88,3.84,16.69,2.15,8.64,4.55,18.26,5.89,26.18-11.6-4.48-31.53-6.18-67.57,.5l-36.86,6.83c-2.25-1.69-4.65-3.77-7.38-6.56-4.51-4.6-5.09-11.5-5.7-18.81-.98-11.84-2.09-24.89-19.7-31.01-.19-1.04-.37-2.08-.53-3.15l-13.82-83.6-.08-.33c-.11-.33-.22-.71-.35-1.13-1.11-3.76-3.72-12.55-14-11.39l-44.94,5.95c-5.68,.66-9.49,2.39-11.66,5.3-3.38,4.52-2.26,10.97-.97,18.45,.14,.79,.28,1.61,.41,2.39l3.68,25.06c-2,.8-3.55,2.18-4.6,4.11-3.39,6.23-.63,17.05,2.51,25.96-1.49-.58-2.78-.43-3.84,.03-6.09,2.64-6.64,17.86-1.16,31.92,.7,1.79,1.37,3.55,2.04,5.3Zm.81-33.32c.05-.02,.12-.04,.2-.04,.86,0,3.28,1.45,6.68,8.53,1.35,3.68,3.19,7.73,5.33,11.92,.94,1.83,1.92,3.68,2.96,5.54,.17,.31,.35,.61,.52,.92l2.36,4.92,2.11,4.41-1.18-3.69c2.61,4.3,5.35,8.51,8.06,12.4,.49,.7,.97,1.39,1.45,2.06,.5,.7,.99,1.39,1.48,2.06,1.22,1.67,2.43,3.26,3.59,4.73,.31,.86,.93,1.39,1.91,1.62l.96-4.14c.41,.11,.95,.54,1.14,1.12-.1-.3-.26-.71-.65-1.2-.71-.9-1.45-1.86-2.19-2.85-.47-.62-.94-1.25-1.42-1.9-.45-.62-.91-1.27-1.38-1.91-5.44-7.62-11.18-16.78-15.63-25.39-1.12-2.16-2.15-4.28-3.08-6.33-.92-2.03-1.74-4.01-2.42-5.87h0c-.21-.64-.53-1.49-.97-2.6-.15-.39-.32-.8-.5-1.25-2.88-7.24-9.64-24.2-5.98-30.92,.39-.72,.89-1.27,1.51-1.7,.56-.38,1.24-.65,2.03-.82,.04,0,.07-.02,.1-.03,.74-.15,1.42-.09,2.06,.14,2.77,.97,4.78,5.16,7.09,10.8,1.05,5.49,10.34,20.91,20.25,36.82,1.31,2.09,2.54,4.07,2.72,4.42-.03-.06-.19-.4-.19-.88h4.25q0-.71-3.17-5.79c-3.79-6.08-12.16-19.51-16.69-28.28,0-.3-.07-.64-.23-1.02-3.8-8.94-4.86-16.55-2.62-18.93,1.68-1.79,5.63-.9,8.65,.17,2.36,.96,9.74,13.35,15.67,23.3,7.9,13.26,16.85,28.3,24.15,35.74,.33,.34,.74,.85,1.16,1.39,1.14,1.44,2.53,3.2,4.38,4,.54,.36,.86,.31,1.38,.24l8.39-1.28-7.62-2.69c-3.63-3.38-13.83-15.78-12.83-18.3,0,0,.33-.23,1.46-.19,7.18,.29,12.9,1.15,17.48,2.45,.8,.23,1.57,.47,2.31,.72,.83,.29,1.61,.6,2.35,.92,12.78,5.52,13.65,15.78,14.54,26.47,.64,7.74,1.31,15.74,6.9,21.43,1.75,1.79,3.37,3.3,4.9,4.61,.74,.63,1.45,1.22,2.15,1.76,.8,.62,1.57,1.19,2.34,1.73,2.7,1.89,5.24,3.34,7.96,4.89,2.38,1.35,4.84,2.75,7.66,4.6l-33,64.61-44.26-39.87-.12-.1c-8.58-6.66-15.56-12.85-21.35-18.72-.61-.61-1.2-1.22-1.78-1.83-.59-.62-1.17-1.23-1.74-1.84-16.35-17.7-22.09-32.66-28.45-49.26-.67-1.76-1.35-3.53-2.05-5.32-5.5-14.11-3.44-25.46-1.1-26.47Zm10.61-64.95c-1.52,.1-2.85-1.53-2.98-3.64-.13-2.11,.99-3.9,2.51-4,1.52-.1,2.85,1.53,2.98,3.64,.13,2.11-.99,3.9-2.51,4Zm214.24,127.61c1.31,.65,2.46,1.34,3.5,2.05,2.17,1.5,3.8,3.1,5.1,4.68,1.44,1.76,2.47,3.49,3.36,4.98,1.9,3.2,3.7,6.23,7.64,6.23,1.03,0,1.94-.02,2.78-.04,2.54-.07,4.23-.1,6.71,.54,.38,3.52,1.08,8.05,2.01,13.23,.14,.79,.29,1.6,.44,2.42,.14,.77,.29,1.54,.44,2.33,4.1,21.46,11.2,50.98,15.71,67.05l-135.5-90.38-.02,.04c-3.29-2.2-6.16-3.83-8.7-5.28-1.36-.77-2.68-1.52-3.99-2.32l32.59-6.04c38.64-7.16,57.74-4.58,67.95,.49Zm-6.88-50.04c-.22-1.79-1.54-1.97-4.75-2.39-8.93-1.19-36.1-4.8-35.73-24.64,.23-12.48,1.5-24.21,3.58-35.03,9.4-1.18,16.7-9.34,16.7-19.21,0-5.79-2.52-10.97-6.48-14.53,4.83-11.13,10.64-20.42,16.97-27.55,12.22,2.7,39.32,10.04,42.33,13.12,.91,4.74-.09,12.23-1.15,20.14-2.08,15.54-4.24,31.61,6.58,35.43,2.32,.82,4.78,2.23,7.38,3.73,4.33,2.5,8.81,5.06,13.66,5.52,.68,14.87,1.69,30.37,3.04,41.19,.53,4.27,.91,8.68,1.14,13.13-20.33,7.62-31.75,30.22-28.01,55.07-2.2-.38-4-.34-6.1-.29-.81,.02-1.68,.04-2.67,.04-1.4,0-2.16-1.08-3.99-4.15-2.2-3.71-5.15-8.68-12.12-12.56-1.23-8.59-3.97-19.6-6.4-29.37-1.9-7.61-3.54-14.18-3.96-17.66Zm-39.25-96.4c2.66,0,5.15,.73,7.3,1.99,.62,.36,1.22,.77,1.78,1.22,.61,.49,1.19,1.03,1.72,1.61,2.46,2.7,3.99,6.32,3.99,10.3,0,7.19-4.94,13.22-11.52,14.74-.75,.17-1.52,.28-2.3,.33-.32,.02-.63,.05-.96,.05-.39,0-.78-.03-1.16-.06-7.61-.61-13.62-7.13-13.62-15.06,0-8.34,6.63-15.12,14.79-15.12Zm210.13,197.42c.85,1.76,1.7,3.54,2.56,5.32,.41,.86,.82,1.71,1.23,2.58,.41,.86,.82,1.73,1.23,2.59,16.81,35.36,34.26,74.79,49.84,109.98,8.04,18.17,15.67,35.4,21.95,49.19l-76.15-.05c9.78-27.5-.08-73.91-6.88-105.83-1.37-6.42-2.63-12.36-3.59-17.46-.25-1.35-.49-2.65-.7-3.88-.24-1.44-.46-2.8-.62-4.05-.13-.93-.23-1.81-.31-2.62l-.02-.15c-4.08-24.44-15.2-43.28-33.04-55.99-20.37-14.5-45.3-18.24-63.59-18.67-.78-.02-1.54-.03-2.29-.04-.76,0-1.5-.01-2.23,0-8.83,.04-15.62,.79-18.83,1.23-3.27-22.23,6.45-42.4,24.01-49.76,.69-.29,1.39-.56,2.11-.81,.12-.04,.24-.09,.36-.13,.57-.19,1.14-.36,1.73-.53,25.93-7.34,66.1,12.23,103.24,89.09Zm-78.24,445.73c-.05,.83-.12,1.54-.19,2.07h-216.97c-3.89-16.17,.12-100.64,4.15-167.34,.04-.71,.09-1.42,.13-2.13,.04-.71,.09-1.42,.13-2.13,2.09-34.26,4.14-63.23,5.05-74.8,1.52-19.49,5.57-40.78,11.65-62.3,.29-1.02,.58-2.04,.88-3.06,.29-1.01,.59-2.01,.89-3.02,4.8-16.02,10.68-32.09,17.45-47.57,.29-.66,.58-1.31,.87-1.96,.29-.65,.58-1.31,.87-1.96,2.06-4.57,4.19-9.07,6.4-13.51,.92-1.84,1.84-3.67,2.78-5.48,.91-1.76,1.84-3.51,2.78-5.24,1.4-2.6,2.82-5.17,4.27-7.71,11.52-20.14,26.01-30,43.07-29.22,36.27,1.6,74.89,49.5,89.56,81.38,1.77,3.85,10.03,21.59,18.04,38.08,8.35,17.18,12.81,25.69,15.43,29.91,.55,.89,1.02,1.58,1.43,2.13,1.14,1.53,1.79,1.89,2.36,1.95,.16,.02,.31,.01,.47,0h4.13l56.79,.04h4.77l79.78,.06c.03,.07,.05,.14,.07,.22,11.6,33.52,7.43,68.66-11.01,92.08-21.26,26.99-59.79,38.22-111.39,32.48h-30.05c.11-2.61-.04-7.12-.39-15.44-.77-18.22-2.19-52.14,3.97-58.57,.63-.66,1.13-.74,1.49-.74v-4.25c-1.69,0-3.27,.71-4.56,2.05-6.85,7.14-6.34,33.25-5.14,61.69,.3,7.12,.61,14.47,.3,16.3-.73,1.22-1.16,4.43-1.29,14.05,0,.68-.02,1.39-.02,2.13,0,.68-.01,1.39-.01,2.13-.05,11.13,.19,28.9,.7,57.38,.24,13.05,.5,27.43,.63,40.01,.01,1.44,.03,2.86,.04,4.25,.09,11.62,.05,21.23-.27,26.07Zm-232.37-265.13s-.05,0-.07,0c-3.71,0-6.15,5.82-9.33,16.53-.21,.71-.45,1.51-.52,1.69-2.61,6.44-4.61,36.15-6.75,71.7l-.21-.03,.7,28.19H180.02l-1.12,.05-4.89-.04c-6.3-22.83,10.16-129.47,18.36-158.71,4.99-17.8,11.41-35.79,18.81-52.91,.34-.79,.69-1.57,1.04-2.35s.69-1.57,1.04-2.35c5.14-11.48,10.7-22.52,16.57-32.77,11.52-20.14,26.02-29.99,43.07-29.22,21.84,.96,44.52,18.71,62.33,39.65,.53,.62,1.05,1.25,1.57,1.87,.52,.62,1.03,1.25,1.54,1.88,10.35,12.79,18.81,26.44,24.12,37.98,1.54,3.34,7.98,17.2,14.92,31.63-6.89,23.35-11.47,46.57-13.12,67.7-.07,.85-2.48,33.22-5.03,74.47l-27.85-4.36c1.58-26.2,3.92-64.43,6.47-70.76,.13-.33,.3-.88,.65-2.08,2.62-8.84,4.22-12,5.1-13.09,.23,.45,.55,1.26,.91,2.65l4.12-1.04c-.43-1.69-1.56-6.19-4.81-6.26Zm-187.29-182.8l139.12-25.78c6.28,6.58,14.01,13.55,23.73,21.09l45.02,40.56-12.27,22.99,.3,.18-12.5,2.29c-18.74-22.49-43.2-41.98-66.86-43.03-18.77-.84-34.57,9.72-46.94,31.36-6.39,11.16-12.42,23.25-17.93,35.81l-31.35,5.74-20.31-91.22Zm211.16,38.85l1.25-2.45,35.19-65.94,131.54,87.74c5.48,4.29,43.06,30.27,46.14,31.84,1.07,.54,2.15,1.3,3.29,2.1,2.57,1.81,5.48,3.86,9.15,3.86v-4.25c-2.32,0-4.45-1.5-6.7-3.08-1.22-.86-2.47-1.74-3.82-2.42-3.14-1.59-28.53-19.29-40.02-27.44-4.16-13.65-12.36-47.04-16.96-70.86-.14-.71-.27-1.41-.4-2.1-.14-.72-.27-1.42-.39-2.12-.89-4.85-1.59-9.18-2.03-12.68-.11-.87-.21-1.71-.28-2.48h.08c2.93-.38,8.9-.99,16.64-1.08,.74,0,1.5-.01,2.28,0,.77,0,1.55,.01,2.34,.03,17.86,.32,42.73,3.73,62.49,17.81,16.86,12.01,27.39,29.89,31.29,53.14,.26,2.67,.77,5.91,1.44,9.6,.22,1.22,.47,2.49,.72,3.81,.24,1.21,.49,2.46,.75,3.74,.72,3.52,1.52,7.29,2.37,11.26,6.83,32.06,16.82,79.03,6.53,104.95l-57.01-.04h-5.21c-4.1-5.07-24.28-47.31-34.54-69.59-15.11-32.82-55.2-82.17-93.24-83.85-18.34-.81-33.84,9.25-46.09,29.9-.29,.48-.57,.96-.85,1.46-.65,1.13-1.28,2.27-1.92,3.41-.94,1.68-1.87,3.37-2.78,5.08-4.04,7.54-7.88,15.35-11.49,23.33l-33.27-20.28-2.73-1.66-2.73-1.66-.94-.57,9.88-18.51,.04,.03Zm28.01,46.57c-6.31,14.37-11.87,29.25-16.51,44.15-4.76-9.95-9.4-19.83-12.88-27.4-5.19-11.27-13.32-24.49-23.31-37.06l14.89-2.73,37.81,23.04Zm-334.88-21.97l4.64,.74,11.18,1.78,4.4,.7,17.01,2.71-3.13,9.32-17.7-2.98-4.25-.72-12.2-2.06-4.39-.74-32.56-5.49,1.91-8.86,35.09,5.59Zm1.89,39.62c-3.58-1.26-6.4-2.26-6.6-7.46-.23-6.23,.84-12.48,3.04-18.62l12.52,2.11c-2.72,9.05-4.78,19.09-5.76,25.3-1.04-.56-2.17-.96-3.21-1.33Zm16.12,16.1c-4.05-.15-8.6-2.73-9.27-9.49,.05-2.99,2.7-17.69,6.36-29.86l18.8,3.17c-4.5,11.88-7.77,24.4-7.85,30.88-.68,3.65-4.53,5.45-8.04,5.3Zm93.56-27.42c-5.67,6.22-8.41,12.6-11.05,18.77-3.65,8.5-6.8,15.84-17.03,21.21-4.65,2.44-8.51,1.3-10.28-.92-1.79-2.24-2.15-6.46,2.22-11.6,9.48-11.15,9.05-24.95,9.03-25.53v-.26l-.08-.25c-1.05-3.63-3.81-5.96-7.57-6.4-6.04-.7-13.5,3.58-16.98,9.75-1.9,3.37-7.41,25.2-8.74,32.98-1.94,5.98-5.03,9.7-8.81,10.53-3.37,.74-7.21-.89-10-4.24-4.02-4.83-2.56-18.14-2.09-20.91,.03-.13,.05-.26,.07-.39l-1.82-.35h1.85c0-11.36,12.37-47.33,21.29-54.65l-2.7-3.29c-2.31,1.9-4.76,5.32-7.17,9.61l-21.2-3.38-1.44-1.38c-.29,.3-.57,.65-.86,1.01l-10.95-1.75c16.79-23.4,49.43-42.73,86.7-48.58l17.88,80.27-.27-.25Zm12.99,432.84c-8.99-.33-8.99-2.75-8.99-11.78v-1c-.02-11.62-.18-24.51-.35-38.15-.4-31.84-.82-64.77,.47-88.37,.5-9.19,7.26-11.55,18-12.37,5.35-.41,11.83-.53,18.46-.53,4.13,0,8.32,.05,12.35,.09-5.61,5.82-5.44,16.7-5.3,25.97,.02,1.48,.05,2.94,.05,4.36,0,3.88-.05,90.17-.13,94.56-.28,16.06-.12,23.68,1.54,27.44-12.99,.2-25.79,.17-36.1-.21Zm99.56-148.75c1.29,3.58,2.52,34.97,2.86,73,.37,41.56-.5,66.83-1.61,71.78l-.38,.07-.1,.5c-4.76,1.4-29.85,2.86-56.12,3.45-.63-.13-1.21-.22-1.72-.3-2.22-.34-2.46-.37-2.97-2.62-.77-3.33-.97-10.14-.72-24.29,.08-4.54,.13-93.76,.13-94.63,0-1.43-.02-2.92-.05-4.42-.23-14.72,.45-25.19,11.31-25.8,.84,0,1.66,0,2.46,0,2.21,0,5.5-.22,9.3-.47,11.49-.76,35.41-2.35,37.59,3.71Zm295.72,41.77c-.11-10.19-.31-23.26-.62-40.08-.22-12.25-.46-25.68-.6-37.68,1.2,.21,2.76,.4,4.8,.58l11.47,77.19h-15.05Zm47.02,95.9c-1.98,1.56-4.6,3.68-6.45,5.25-2.43-2.69-6.93-7.07-6.91-7.32-.03,0-.16,.08-.34,.21l-25.39-170.94c7.4,.41,19.04,.65,37.41,.65,7.76,0,16.73-.04,27.08-.13l-25.39,172.28Zm145.63-91.04h-127.92l11.98-81.28c9.91-.1,21.02-.23,33.49-.42,6.8-.1,11.71-.17,13.66-.17,20.08,0,37.13-3.44,51.4-10.44l17.38,92.31Zm13.45-424.51c29.65,3.72,53.87,28.26,52.89,53.58-.78,20.14-14.83,111.2-27.6,173.26-5.64,27.42-13.73,58.35-30.96,79.8-6.81,8.48-14.87,15.22-24.26,20.28l-1.83,.34,.1,.56c-13.93,7.07-30.69,10.56-50.58,10.56-1.98,0-6.9,.07-13.72,.17-8.04,.12-21.1,.31-35.53,.44l-1.54-.23-.04,.24c-30.94,.27-67.49,.25-74.3-1.38-.05-5.5-.07-10.6-.06-15.05l2.02,.16h.16c5.01,0,12.97,.08,22.19,.17,12.57,.12,27.43,.26,40.19,.26,4.39,0,8.54-.02,12.26-.06,32.14-.35,50.35-2.85,66.94-16.13,2.55-2.04,4.51-3.6,6.07-4.83,6.19-4.9,6.3-5,11.96-10.83,1.28-1.31,2.85-2.93,4.84-4.97,30.22-30.83,57.98-140.92,67.1-177.1,6.08-24.12,11.95-58.89-7.23-82.25-7.79-9.49-18.52-13.36-36.85-17.55-15.36-3.52-81.66-3.99-108.41-2.18-.78-1.63-1.57-3.27-2.35-4.88-.64-1.33-1.29-2.65-1.94-3.95,31.05-2.29,106.4-1.46,130.45,1.56Z"/><rect class="f" x="228.55" y="217.23" width="186" height="177" transform="translate(-50.38 63.79) rotate(-10.51)"/><rect class="f" x="533.93" y="364.74" width="95.09" height="150.88" rx="25.46" ry="25.46" transform="translate(-81.57 136.47) rotate(-12.52)"/><rect class="f" x="589.55" y="486.23" width="84" height="116"/><rect class="f" x="570.99" y="429.96" width="75.95" height="104.09" transform="translate(624.61 -294.48) rotate(52.79)"/><rect class="f" x="284.14" y="393.26" width="157" height="44.49" transform="translate(-68.5 71.6) rotate(-10.31)"/><polygon class="f" points="357.77 487.94 419.55 467.23 443.55 445.23 476.76 451.1 493.67 460.53 520.41 480.19 539.55 495.23 529.45 453.45 430.55 393.23 334.42 431.44 352.13 489.48 357.77 487.94"/><line class="e" x1="358.3" y1="490.75" x2="421.05" y2="472.73"/><polygon class="f" points="352.76 494.14 366.55 491.23 397.44 512.11 392.55 522.23 352.76 494.14"/><line class="g" x1="292.85" y1="402.87" x2="389.6" y2="385.18"/><line class="e" x1="540.55" y1="487.23" x2="546.55" y2="523.23"/><polyline class="h" points="21.27 499.06 6.55 490.23 24.08 486.05"/></g></svg>