<?xml version="1.0" encoding="UTF-8"?><svg id="b" xmlns="http://www.w3.org/2000/svg" viewBox="0 0 1276.01 417.7"><defs><style>.c{fill:none;}</style></defs><path class="c" d="M1130.18,411.28l.21-1.24c29.09-1.49,144.2,10.23,143.71-25.99-.54-39.71-41.27-90.64-84.14-148.57,.85-.09,2.04-1.4,5-3.92,.96-.82-10.8-15.24-11.77-16.74-6.7-10.27-5.46-10.16-11.5-5.72-14.62-30.98,27.93-45.92,9.89-95.96,12.84-32.01-15.69-60.21-61.18-47.47-5.51-1.97-11.55-1.91-14.49,2.6-1.88,2.9-6.94-1.92-17.06,1.26-7.09,2.23-5.1,6.82-9.45,10.83-1.34,1.24-10.6,6.32-10.92,14.46-3.95,3.3-7.95,6.88-11.98,10.76-1.4-.23-2.84-.36-4.31-.36-13.61,0-24.64,10.31-24.64,23.03,0,2.53,.44,4.96,1.25,7.24-.77,1.05-1.52,2.12-2.25,3.21l-35.07-30.06c1.32,35.07-55.68,65.3-66.77,86.9-.86,1.67-1.69,3.29-2.52,4.88l-52.48-25.87c-14.62-9.65-48.55-33.78-49.26-35-.02-.04-.02-.07-.02-.11l10.96-3.15c13.99-2.81,38.79-6.55,58.94-9.07,7.46-.93,49.93-9.19,69.2-15.18,8.3,.67,23.33-3.76,31.96-3.39,10.68,.46,21.03-8.96,24.87-18.18,1.81-4.36,7.47-13.9,14.14-24.63,9.9-6.31,30.23-17.93,25.68-26.93-1.13-2.24-3.83-2.71-7.17-2.22,4.43-6.9,8.07-12.58,9.88-15.57,10.23-16.87,9.9-19.4-1.18-19.21-8.68,.14-27.12,.62-31.47,1.3-5.88,.91-6.77,1.71-15.72,13.16-1,1.28-2.02,2.62-3.06,4.02-.02,0-.05,0-.07,0-19.2,3.12-25.67,3.96-36.17,22.68-2.55,4.54-4.33,7.57-5.79,10.29-49.72,1.59-130.73,11.15-153.07,14.74-37,5.96-48.89,1.33-74.53,27.14-27.77,27.96-1.67,73.31,13.02,86.91,4.91,4.54,42.5,43.11,64.4,64.32-12.17-.37-24.65-1.02-37.49-2.12-72.99-6.25-116.86-11.87-116.86-11.87l-.11,2c-31.96-47.47-44.3-80.46-93.38-130.96-37.34-38.43-95.2-17.6-134.76,22.88-49.05,50.2-100.55,126.2-136.55,181.15-75.56,10.08-145.59,17.38-198.01,17.38,0,3.27-.06,6.57-.14,9.9-8.37,.87-14.48,1.61-14.48,1.61-.12,1.11-.93,3.3-2.13,6.34,.43-5.71,.65-9.42,.5-9.64-24.55-37.36-11.7-102.82-57.63-101.48-6.05,.18-19.6,169.24-22.31,181.51-.47,3.63,71.08,3.28,73.07,.31,.06-.09,.62-5.72,1.4-13.97,4.75,.36,11.07,.74,17.96,1.1-.13,3.68-.21,7.25-.21,10.66H683.5c.04-.17,.07-.35,.1-.52l127.72-2.04,318.86,2.57Zm32.04-86.06c-.3-.19-11.03-.92-17.08-1.33,.18-1.13,.3-1.91,.35-2.27,0,0-50.5-21.64-66.32-33.07-9.32-6.74-18.67-12.42-28.09-17.22,16.11-17.03,35.42-41.24,51.44-61.86,2.21,9.44,9.53,16.61,14.03,26.26,.45,.96,2.35,4.21,5.14,8.92,.69,1.24,1.55,2.66,2.37,4,12.15,20.43,35.02,58.73,39.75,72.31-2.94-6.62-5.52-12.06-6.31-13.05l7.17,16.82c-.02,1.29-.78,1.56-2.48,.5Zm-705.15-41.88l28.35-3.57c-9.63,1.46-19.33,2.94-29.07,4.42,.24-.29,.48-.57,.72-.86Z"/><path d="M1131.78,413.19l.23-1.32c5.76-.19,14.36,.02,24.13,.26,9.44,.23,20.05,.49,30.96,.49,33.61,0,70.04-2.45,83.44-15.7,3.69-3.65,5.53-7.99,5.46-12.89-.5-36.82-34.2-82.08-73.22-134.48-3.31-4.45-6.67-8.96-10.05-13.52,.42-.34,.87-.74,1.4-1.21,.57-.51,1.25-1.11,2.07-1.8,1.73-1.47,.34-3.56-2.7-7.76-1.98-2.74-4.5-5.99-6.35-8.36-1.11-1.43-2.16-2.78-2.37-3.1-.78-1.19-1.45-2.24-2.03-3.16-2.64-4.15-3.74-5.87-5.71-6.23-1.55-.28-2.78,.46-4.56,1.76-4.82-12.25-.18-21.86,5.41-33.43,7.25-15,15.44-31.97,5.72-59.55,3.12-8.09,3.83-16.24,1.9-23.94-3.33-13.22-13.9-23-29.02-26.85-11.06-2.81-23.29-2.3-36.13,1.26-2.07-.67-4.18-1.08-6.16-1.12-4.44-.06-7.82,1.54-9.92,4.75-.31,.16-1.67-.06-2.66-.23-2.91-.49-7.31-1.23-13.34,.66-5.11,1.61-6.37,4.49-7.48,7.04-.65,1.49-1.26,2.89-2.68,4.2-.13,.12-.58,.44-.99,.73-2.96,2.1-9.72,6.93-10.47,14.25-3.6,3.02-7.2,6.24-10.77,9.64-1.21-.16-2.44-.25-3.7-.25-14.63,0-26.54,11.18-26.54,24.93,0,2.4,.37,4.72,1.05,6.91-10.29,14.39-15.28,28.81-14.75,42.45-7.58,11.01-5.96,24.22-2.75,34.19-1.71,2.5-3.73,5.1-5.95,7.95-2.76,3.54-5.88,7.55-8.92,12.13-.33,.49-.66,.99-.98,1.48l-68.57-33.8c.54-1.04,1.08-2.09,1.63-3.17,3.86-7.51,14.01-16.57,24.76-26.15,19.63-17.51,41.81-37.29,42.23-59.74,10.76-.66,20.83-10,24.71-19.33,1.75-4.2,7.27-13.51,13.77-24,.76-.48,1.56-.98,2.41-1.52,11.35-7.12,28.51-17.87,23.57-27.64-1.06-2.11-2.96-3.1-5.33-3.35,3.6-5.61,6.42-10.03,7.97-12.6,6.42-10.6,8.97-15.88,7.07-19.2-1.45-2.52-4.86-2.99-9.9-2.9-7.23,.12-27.03,.59-31.73,1.32-6.71,1.04-7.92,2.34-16.92,13.86-.86,1.1-1.73,2.25-2.62,3.43-18.93,3.07-26.02,4.22-36.83,23.51-1,1.78-1.88,3.33-2.67,4.72-.99,1.75-1.85,3.25-2.61,4.64-51.04,1.71-132.7,11.58-152.22,14.73-7.7,1.24-14.34,2.02-20.2,2.71-22.33,2.63-34.63,4.08-55.37,24.96-8.76,8.82-13.07,19.94-12.79,33.04,.48,22.97,15.42,46.92,25.87,56.59,1.95,1.8,9.3,9.23,18.61,18.63,19.74,19.94,33.12,33.3,42.26,42.24-10.57-.39-21.38-1-32.51-1.95-72.1-6.18-116.34-11.8-116.78-11.86l-.74-.09c-8.41-12.66-15.51-24.35-22.48-35.85-17.65-29.11-34.33-56.62-69.16-92.46-13.45-13.84-29.99-20.87-49.17-20.9h-.1c-28.45,0-61.42,16.36-88.21,43.78-48.94,50.09-100.37,125.88-136.33,180.73-75.34,10.06-144.51,17.23-196.89,17.23h-1.9v1.9c0,2.7-.04,5.44-.11,8.19-6.2,.66-10.91,1.21-12.37,1.38,.03-1.9-.12-2.13-.29-2.39-8.95-13.62-12.82-31.03-16.56-47.87-6.23-28.01-12.11-54.48-41.25-54.48-.48,0-.97,0-1.46,.02-2.3,.07-4.29,.13-9.7,46.09-3.01,25.55-6.22,58.33-8.8,84.67C3.12,386.43,.93,408.79,.05,412.77l-.03,.17c-.07,.55-.02,1.92,2,2.68,4.14,1.56,20.93,2.09,35.44,2.09,1.22,0,2.42,0,3.6-.01,33.53-.21,34.91-2.27,35.5-3.15,.19-.28,.36-.54,1.55-12.99,3.52,.26,8.15,.54,14.27,.86-.09,3.04-.15,6-.15,8.86v1.9H648.75v.03l2.02-.03h34.28l.11-.55,126.15-2.02,320.47,2.58ZM80.63,373.74c1.33-15,2.13-24.5,2.58-30.55,.84-2.15,1.46-3.79,1.81-5.03,3.64-.43,7.32-.84,10.97-1.23-.36,11.54-1.15,23.32-1.92,34.81-.63,9.39-1.23,18.42-1.57,26.88-5.26-.28-10.1-.57-14.05-.84,.54-5.76,1.24-13.53,2.18-24.04Zm19.27-41.01c.04-1.97,.07-3.94,.08-5.89,51.57-.17,118.92-7.1,192.25-16.83,1.65-.22,3.31-.44,4.97-.66,49.86-6.67,102.36-14.59,154.46-22.52,1.9-.29,3.8-.58,5.7-.87,2.79-.43,5.59-.85,8.38-1.28,14.04-2.14,27.94-4.25,41.64-6.32,1.33-.2,2.65-.4,3.97-.6,29.91-4.51,58.82-8.79,86.07-12.56,.46,.52,.91,1.01,1.34,1.46l1.99-1.92c19.95-2.75,38.97-5.22,56.83-7.3l-3.88,68.39c-8.69,1.19-54.06,4.78-105.46,8.57-2.07,.15-4.14,.3-6.22,.46-50.98,3.73-106.6,7.57-137.69,9.4-2.03,.12-3.97,.23-5.78,.33-8.75,.49-14.88,.77-17.46,.77-32.78,0-71.03,1.72-109.87,3.83-1.57,.09-3.14,.17-4.71,.26-11.13,.61-22.3,1.25-33.39,1.88-28.85,1.65-58.3,3.33-85.98,4.46-.63,.03-1.27,.05-1.9,.08-.63,.03-1.27,.05-1.9,.07-15.59,.61-30.57,1.04-44.52,1.17,.42-6.86,.77-13.75,.97-20.57,.02-.63,.03-1.26,.05-1.9,.02-.64,.04-1.28,.05-1.91Zm897.58-98.71c2.97-4.45,5.91-8.24,8.76-11.9,1.59-2.04,3.11-4,4.52-5.93,2.42,6.11,5.02,10.28,5.31,10.72l.13-.08c-4.97,5.14-8.16,14.38-10.98,25.68-4.8-1.16-9.64-2.16-14.5-3.03,.09-2.66,.51-4.84,1.8-7.62,1.58-2.65,3.27-5.29,4.97-7.85Zm274.73,150.07c.05,3.88-1.37,7.2-4.34,10.14-16.61,16.43-76.1,14.98-111.64,14.12-7.35-.18-13.75-.33-18.91-.33-1.68,0-3.23,.02-4.65,.06-.36,0-.72,.02-1.07,.03,.37-3.1,1.11-9.21,2.04-16.79,1.6-13.02,3.79-30.41,5.72-44.49,1.27-9.2,2.43-16.98,3.25-21.19,.11,0,.22,.01,.33,.02,.62,.04,1.25,.08,1.9,.13,.63,.04,1.26,.08,1.9,.13,6.36,.43,13.28,.92,14.8,1.12,1.22,.69,2.27,.9,3.14,.64,4,9.29,7.96,19.03,8.39,21.4l3.73-.69c-.54-2.92-6.3-17.04-11.19-28.09-.49-1.39-1.17-3.07-2.09-5.12-2.19-4.88-5.66-11.64-10.3-20.09-7.16-13.02-16.06-28.13-22.99-39.81,2.02-.22,4.87-.76,8.93-1.79,14.08-3.58,39.06-12.65,43.91-23.63,1.52,1.92,2.49,3.42,3.2,4.52,.9,1.41,1.55,2.4,2.59,2.81,3.65,4.93,7.29,9.82,10.86,14.62,38.63,51.88,71.99,96.68,72.47,132.27Zm-692.73-36.03c-55.14,3.17-146.22,7.59-189,9.27-2.13,.08-4.13,.16-6.01,.23-7.89,.29-13.5,.46-16.04,.46-33.89,0-70.53,2.21-106.02,4.38l-1.11,.07c-1.23,.07-2.46,.15-3.69,.22-37.36,2.28-75.74,4.53-110.4,4.1-.63,0-1.27-.02-1.9-.03-.63,0-1.27-.02-1.9-.03-.25,0-.5,0-.74-.01-13.85-.26-22.56,1.06-31.79,2.48-4.03,.62-8.18,1.25-12.97,1.8,.22-3.34,.45-6.71,.66-10.08,14.03-.13,29.1-.56,44.78-1.17,.63-.02,1.26-.05,1.9-.07,.63-.03,1.26-.05,1.9-.08,27.74-1.13,57.25-2.82,86.16-4.47,10.15-.58,20.37-1.16,30.56-1.73,1.58-.09,3.15-.17,4.73-.26,39.75-2.17,78.99-3.98,112.47-3.98,1.54,0,6.26-.23,13.41-.64,1.8-.1,3.76-.22,5.86-.34,30.73-1.84,92.08-5.96,147.02-9.92,2.63-.19,5.24-.38,7.83-.57,46.78-3.4,87.47-6.59,98.29-7.99l-.78,13.81c-3.86,.35-9.1,.41-13.09,.45-6.22,.06-12.1,.12-15.09,.91-1.49,.4-11.01,1.12-25.58,2.04-5.76,.36-12.31,.75-19.46,1.16Zm264.47-53.4c1.32,.01,2.62,.04,3.92,.08,5.23,.15,10.3,.5,15.06,.96,10.13,.99,17.52,.29,22.98-1.81,.9-.35,1.75-.74,2.55-1.16,.73-.39,1.44-.8,2.09-1.24,9.41-6.46,10.83-19.21,12.64-35.37,.29-2.59,.59-5.28,.94-8.05,.08-.63,.16-1.26,.25-1.9,.08-.63,.17-1.26,.26-1.9,.58-4.1,1.3-8.34,2.26-12.66,1.08-4.81,2.47-9.72,4.32-14.64,2.01-5.33,4.58-10.67,7.9-15.91,.22-.34,.43-.69,.65-1.03l.38,.25,2.8,1.83c-.14,.21-.27,.42-.41,.64-3.37,5.25-5.93,10.57-7.93,15.89-3.24,8.65-4.97,17.29-6.15,25.6-.09,.64-.18,1.27-.26,1.9-.09,.64-.17,1.27-.25,1.9-.37,2.88-.68,5.72-.99,8.5-1.7,15.21-3.19,28.56-11.86,36.3-.55,.49-1.12,.95-1.73,1.39-.66,.48-1.36,.94-2.09,1.37-6.27,3.64-15.34,5.18-28.71,3.88-4.86-.47-10.03-.82-15.37-.96-1.29-.03-2.58-.06-3.88-.07-23.37-.15-49.21,4.03-65.79,19.78-17.47,16.58-18.82,37.17-10.03,47.49,8.7,10.22,28.73,12.97,58.82-9.97,7.99-6.09,16.06-10.05,24.17-12.45,1.24-.37,2.49-.7,3.73-1,22-5.25,44.27,.34,66.01,5.81,8.8,2.21,17.44,4.39,25.88,5.79,2.13,.35,4.25,.65,6.35,.9,16.13,1.87,31.47,.18,45.66-10.41,25.29-18.86,21.21-37.06,14.58-54.69-.3-.81-.61-1.62-.93-2.42-.32-.82-.64-1.63-.96-2.45-.07-.19-.15-.37-.22-.56-2.03-5.19-4-10.24-5.29-15.2-.96-3.71-1.53-7.38-1.43-11.02,.02-.62,.05-1.24,.11-1.87,.06-.65,.14-1.3,.25-1.95,.08-.47,.15-.94,.25-1.41l.61,.13,3.1,.68c-.11,.5-.19,1-.27,1.5-.1,.65-.17,1.31-.21,1.97-.03,.47-.04,.94-.04,1.41-.07,7.67,3.12,15.82,6.46,24.36,.51,1.3,1.03,2.62,1.53,3.94,.3,.79,.61,1.59,.9,2.39,.29,.78,.57,1.56,.85,2.35,6.15,17.46,8.83,36.59-17.03,55.88-16.88,12.59-34.92,13.44-53.84,10.4-2.13-.34-4.27-.73-6.43-1.16-6.84-1.36-13.78-3.11-20.82-4.88-20.91-5.26-42.32-10.64-63.29-5.96-1.27,.28-2.53,.61-3.79,.97-7.96,2.26-15.85,6.05-23.61,11.97-17.43,13.29-31.87,18.33-43,18.33-9.44,0-16.5-3.62-21.01-8.92-9.8-11.51-9.51-33.89,10.31-52.71,17.6-16.7,44.74-21.03,69.05-20.81Zm256.23-87.25c.08,.55,.17,1.1,.28,1.64-15.34,19.71-34.07,43.17-49.79,59.95-13.76-6.89-27.65-11.91-41.78-15.56,2.73-10.88,5.84-19.99,10.41-24.35,.86-.16,3.19-.43,5.65-.71,16.1-1.87,57.29-6.64,75.24-20.97Zm19.82,38.09c.61,1.1,1.42,2.44,2.44,4.11,.32,.55,.66,1.11,1,1.69,.52,.87,1.06,1.78,1.6,2.7,.09,.19,.18,.38,.33,.56,7.04,11.84,16,26.99,23.54,40.6,3.08,5.56,5.48,10.07,7.35,13.76l-.23,.18c.68,.86,3.24,6.32,6.18,12.96,.18,.54,.31,.99,.4,1.35-1.03-.22-4.11-.51-15.29-1.25,.02-.11,.03-.2,.04-.27l.18-1.42-1.32-.56c-.5-.22-50.49-21.68-65.95-32.87-8.66-6.27-17.36-11.63-26.11-16.22,15.05-16.13,32.51-37.9,47.59-57.24,1.67,4.4,4.27,8.4,6.92,12.47,2.16,3.32,4.4,6.75,6.16,10.51,.47,1,2.14,3.87,5.16,8.96Zm54.45-74.4c-5.97,12.35-11.64,24.11-4.23,39.35l-.43,.11c.07,.3,1.9,3.11,4.02,6.31-.7,.49-1.47,1.09-2.36,1.78-6.57,5.12-21.94,17.09-50.72,20.62-1.3-2.22-2.18-3.77-2.45-4.34-1.87-4-4.18-7.55-6.42-10.98-3.05-4.68-5.91-9.07-7.26-14.06-.21-.79-.39-1.6-.52-2.42-.14-.89-.24-1.81-.27-2.75-.02-.54-.02-1.09,0-1.64,.02-.67,.07-1.35,.15-2.05,.08-.66,.18-1.33,.32-2.02,.69-3.51,2.15-7.4,4.62-11.83,.93-1.67,4-4.11,7.8-6.86,.51-.37,1.03-.74,1.56-1.12,.51-.36,1.02-.72,1.54-1.09,.59-.41,1.19-.83,1.79-1.25,2.49-1.74,5.16-3.61,7.84-5.58,1.27-.94,2.55-1.9,3.82-2.89,.1-.08,.21-.16,.31-.24,.48-.37,.95-.75,1.42-1.13,.49-.4,.98-.8,1.47-1.21,.26-.22,.52-.44,.78-.66,.22-.19,.44-.38,.66-.57,5.57-4.82,10.44-10.12,13.03-15.82,1.31-2.89,2.04-5.88,1.97-8.96-.22-9.12,2.74-14.66,5.58-15.95,1.09-.5,2.19-.35,3.27,.41,.09,.76,.37,1.6,1.2,1.98,.08,1.1,.14,1.97,.13,2.26-.07,2.6-.24,5.05-.53,7.41-.29,2.43-.7,4.75-1.24,6.97-1.36,5.59-3.53,10.61-6.62,15.44l3.2,2.04c4.41-6.9,7.07-14.13,8.27-22.66,.26-1.89,.45-3.85,.58-5.88,.06-1.06,.12-2.13,.15-3.23,.02-.91-.25-4.21-.61-8.43-.03-.31-.05-.63-.08-.93,.77-1.52,2.07-2.11,3.43-2.71,.44-.19,.87-.39,1.29-.62,.5,1.12,.9,2.03,1.04,2.4,0,.02,.02,.05,.03,.07,.6,1.83,1.12,3.61,1.56,5.35,.42,1.67,.78,3.3,1.05,4.91,.03,.15,.05,.3,.07,.46,.29,1.79,.5,3.54,.61,5.28,.32,5-.1,9.85-1.25,14.82l3.7,.85c1.96-8.49,1.95-16.61-.09-25.56-.37-1.64-.81-3.3-1.32-5-.2-.67-.41-1.34-.64-2.02-.03-.09-.06-.19-.09-.28-.2-.6-.93-2.25-1.95-4.47l-.05-.1s.04-.07,.06-.1c.8-1.27,1.53-2.05,2.15-2.47,.42-.28,.78-.4,1.07-.39,.68,.04,1.74,.96,2.65,3.44v.04c.67,1.79,1.25,3.52,1.76,5.22,7.14,23.86-.25,39.16-6.83,52.76Zm-144.81-33.51c.42-.59,.85-1.18,1.3-1.77,.63-.84,1.27-1.69,1.94-2.53,9.05-11.47,19.5-20.32,26.04-25.18,.68-.5,1.32-.97,1.91-1.38,.7-.5,1.34-.93,1.9-1.3,.56-.37,1.04-.68,1.43-.91,1.42-.85,2.82-1.64,4.21-2.37,1.38,2.66,3.55,5.32,6.52,7.97-.5,1.25-.91,2.43-1.23,3.55-.24,.83-.44,1.63-.59,2.4-.21,1.07-.35,2.08-.4,3.03-.24,3.95,.77,6.84,2.27,8.94,.56,.78,1.18,1.46,1.82,2.04,.58,.52,1.17,.96,1.76,1.34,.31,.2,.62,.38,.92,.54,1.89,8.6,11.33,12.1,16.49,14.02,.82,.3,1.79,.67,2.34,.92,1.05,7.49,3.01,10.91,5.44,12.86,.59-.36,1.19-.69,1.8-1,.66-.34,1.34-.66,2.04-.95,.03-.01,.06-.02,.1-.04,9.56-3.93,19.99-2.18,27.13,3.68,.17,.14,.34,.28,.5,.42-.37,.31-.73,.63-1.1,.93-.12,.1-.24,.2-.36,.3-.5,.41-1.01,.83-1.51,1.23-3.85-3.14-8.83-4.88-14.05-4.88-1.99,0-4.01,.26-6.02,.78-.75,.2-1.5,.43-2.24,.7-.33,.12-.66,.24-.98,.38-.45,.19-.87,.4-1.3,.61-5.01,2.43-8.96,6.4-11.2,11.33-2.41,5.32-2.55,11.11-.39,16.3,1.12,2.71,2.79,5.04,4.84,6.93-.19,.72-.35,1.42-.48,2.12-.14,.73-.25,1.44-.33,2.14-.07,.6-.13,1.19-.16,1.77-15.33,15.11-58.93,20.17-75.47,22.09-3.39,.39-5.09,.6-6.04,.78l.79-.5c-.07-.12-3.29-5.28-5.84-12.58,4.5-7.09,6.83-14.25,4.02-24.05-4.41-15.43-.72-31.85,10.97-48.91,.4-.59,.81-1.17,1.23-1.76ZM488,247.03c3.02,1.39,10.46,14.59,17.5,27.78-13.27,2.01-26.73,4.06-40.33,6.12-1.37,.21-2.75,.42-4.12,.63,10.93-13.13,20.4-25.23,26.95-34.53Zm3.76-1.74c.12-1.92-2.34-4.74-10.32-13.18-3.62-3.83-9.1-9.63-9.55-10.98l-3.74,.64c.34,2.01,3.32,5.32,10.54,12.95,2.52,2.67,5.96,6.31,7.88,8.66-.58,.24-1.09,.65-1.5,1.23-7.5,10.68-18.05,24.01-29.67,37.82-23.15,3.52-46.4,7.05-69.47,10.48,4.42-4.65,16.95-20.65,57.11-75.85,1.58-2.17,2.73-3.76,3.35-4.61,2.53-3.45,4.84-6.89,7.08-10.21,11-16.34,19.7-29.24,42.77-29.24,16.78,0,42.31,36.78,60.95,63.64,7.82,11.26,14.71,21.19,20.2,27.57-21.83,3.12-44.56,6.5-67.9,10.02-8.49-15.96-13.79-25.1-17.72-28.92Zm90.13,18.26c-5.55-5.98-13.01-16.72-21.59-29.09-20.18-29.08-45.3-65.27-64.07-65.27-25.1,0-34.75,14.33-45.92,30.92-2.22,3.29-4.51,6.69-6.99,10.09-.62,.85-1.78,2.44-3.36,4.62-44.23,60.8-55.81,75.14-57.74,76.45,0,0,.09-.06,.24-.11l.74,2.15c-4.87,.72-9.73,1.44-14.58,2.15,3.67-3.5,15.11-17.84,57.9-76.67,1.56-2.14,2.7-3.72,3.32-4.56,.85-1.16,1.73-2.37,2.64-3.63,14.49-19.93,36.28-49.91,62.08-49.91,.38,0,.76,0,1.14,.02,27.8,.95,60.94,48.03,82.87,79.18,6.06,8.61,11.51,16.34,15.96,21.88-4.18,.58-8.39,1.17-12.64,1.78ZM96.16,402.62c.02-.63,.03-1.26,.06-1.9,.02-.63,.05-1.27,.08-1.9,.3-7.57,.82-15.63,1.38-23.99,5.15-.57,9.55-1.24,13.8-1.89,9.46-1.45,17.62-2.71,31.14-2.43,.28,0,.56,0,.84,.01,.63,.01,1.27,.02,1.9,.03,.63,0,1.26,.02,1.9,.03,33.84,.42,71.13-1.7,107.59-3.92,1.62-.1,3.24-.2,4.86-.3,.62-.04,1.24-.08,1.85-.11,35.78-2.18,72.77-4.44,106.9-4.44,1.46,0,5.19-.11,10.73-.31,1.98-.07,4.19-.16,6.61-.25,44.65-1.74,160.62-7.15,213.3-10.5,12.73-.81,21.76-1.5,25.2-2,.55-.08,.97-.15,1.22-.22,2.53-.67,8.44-.73,14.15-.79,5.22-.05,9.49-.13,12.84-.42l-.11,2.02-.21,3.77-3.19,56.28H96.02c.02-2.19,.07-4.46,.14-6.76ZM1176.37,208.17c.58,.42,1.85,2.41,3.18,4.51,.59,.93,1.27,1.99,2.05,3.19,.28,.43,1.03,1.39,2.55,3.36,2.25,2.9,7.17,9.23,8.63,11.72-.43,.38-.82,.72-1.17,1.03-.4,.35-.8,.71-1.14,1-2.32-3.14-4.64-6.3-6.97-9.48-.93-2.86-3.19-5.33-5.19-7.25-.07-.06-.14-.12-.2-.17-.09-.12-.17-.24-.26-.36-1.51-2.09-2.75-4.09-3.76-6.03,.9-.67,1.86-1.37,2.28-1.53Zm-20.82-142.08c13.72,3.49,23.3,12.27,26.27,24.1,1.46,5.81,1.24,11.93-.56,18.11-1.41-1.83-2.95-2.37-4.17-2.44-.25-.02-.52-.01-.8,.02,.21-2.93-.15-5.68-2.68-8.11-4.78-4.59-7.01-9.8-8.98-14.41-3.28-7.67-6.39-14.92-19.79-14.92-.25,0-.5,0-.76,0-1.89,.04-4.69,.95-7.39,1.83-1.48,.48-3.6,1.17-4.64,1.34-1.41-2.02-3.61-3.9-6.16-5.42,10.52-2.32,20.53-2.42,29.66-.1Zm-142.91,118.13c.3,1.71,.68,3.4,1.16,5.07,2.06,7.2,1.02,12.65-1.87,18.09-1.86-7.2-2.52-15.61,.7-23.16Zm-64.01-16.78c-11.5,10.25-21.43,19.11-25.61,27.25-.56,1.1-1.11,2.16-1.66,3.22l-50.57-24.93c-12.22-8.1-39.25-27.06-46.95-33.03,8.4-2.38,38.46-7.31,66.72-10.84,4.9-.61,24.68-4.33,43.33-8.54,12.2-2.76,20.39-4.9,25.89-6.6,.53,.03,1.07,.05,1.64,.05,4.25,0,9.47-.87,14.84-1.77,4.71-.79,9.54-1.58,13.34-1.7-.47,20.77-21.94,39.92-40.96,56.88Zm20.07-116.06c.46-.82,.96-1.69,1.5-2.64,.79-1.39,1.68-2.95,2.68-4.74,9.21-16.42,14.71-18.39,30.32-21,.85-.14,1.74-.29,2.65-.44,.38-.06,.76-.12,1.15-.19l.68-.11c.28-.05,.55-.08,.82-.12,1.73-.24,3.3-.36,4.72-.36,5.81,0,8.95,1.83,9.39,3.54,.63,2.46-3.53,6.82-14.14,10.57-.26,.09-.75,.27-1.18,.6-2.85,.15-6.09,.38-9.25,.68-.82,.08-1.64,.16-2.44,.25-.83,.09-1.65,.19-2.45,.28-2.75,.34-5.23,.74-7.06,1.18-.65,.16-1.13,.49-1.44,1.01,.3-.49,.8-.73,1.01-.76l.35,3.78c.25-.02,.78-.07,1.28-.41,.88-.2,1.94-.4,3.12-.58,.78-.12,1.61-.24,2.47-.36,.79-.1,1.62-.2,2.46-.3,6.47-.73,14.2-1.21,18.35-1.18,3.72,.18,4.62,.77,4.79,1.16,.53,1.19-.83,7.26-6.45,9.8-1.44,.65-2.58,1.15-3.52,1.55-1.37,.18-3.69,.42-6.1,.67-.77,.08-1.54,.16-2.29,.23-5.35,.54-10.02,1.03-13.47,1.48-.29,.04-.58,.08-.86,.11-.58,.08-1.1,.16-1.59,.23-1.03,.16-1.87,.31-2.49,.46-.16,.04-.31,.08-.44,.11-.18,.05-.59,.13-1.03,.21-1.49,.28-3.98,.75-6.83,1.9l1.42,3.52c1.55-.62,2.97-1.02,4.17-1.29,.74-.17,1.4-.29,1.95-.4,.2-.04,.38-.07,.55-.11,.33-.06,.61-.12,.84-.19,.38-.11,.98-.23,1.73-.36,3.59-.6,10.87-1.34,16.45-1.91,.55-.06,1.06-.11,1.55-.16h.02c.68-.07,1.32-.14,1.91-.2,.15,.28,.39,.58,.76,.85,.02,.01,.03,.02,.05,.04,.03,.17,.06,.87-.7,2.57-.23,.51-.52,1.11-.92,1.81-.71,1.27-1.88,2.31-3.27,3.17-.41,.26-.84,.5-1.29,.73-1,.52-2.07,.96-3.12,1.34-.99,.36-1.98,.67-2.9,.94-4.89-.11-11.46,2.53-16.91,4.78-.21,.09-.41,.17-.61,.25-.76,.31-1.55,.64-2.3,.94-1.05,.42-2.02,.8-2.77,1.04-.46,.15-.84,.25-1.08,.27l-.43,.03-.69,.39,.89,1.56,.43,.76,.08,1.04c.2-.02,.43-.05,.67-.1,.71-.14,1.59-.42,2.69-.83,1.09-.41,2.38-.94,3.96-1.59,2.93-1.22,6.49-2.7,9.8-3.68,.21,.32,.54,.65,1.06,.92,1.93,1.01,1.84,1.91,1.8,2.29-.55,5.24-17.09,14.67-20.57,15.64-1.78,.5-3.45,1.24-4.94,2.13-1.4,.83-2.64,1.79-3.71,2.8-1.86,1.77-3.14,3.71-3.62,5.4-.2,.7-.24,1.31-.2,1.84,.02,.23,.05,.46,.1,.66-.36,.81-.46,1.88-.48,3.22-.4-.27-.76-.57-1.1-.88-.52-.47-.95-1-1.35-1.56-.42-.6-.8-1.25-1.08-1.96-3.05-7.67,2.56-20.09,5.9-27.52,1.03-2.29,1.85-4.09,2.28-5.43,2.57-7.85,4.03-11.48,6.19-15.61,.62-1.19,1.31-2.43,2.09-3.82Zm85.77-11.61c2.89,5.72-8.89,14.18-17.95,20.02,4.67-7.42,9.51-14.96,13.61-21.36,2.11-.22,3.72,.11,4.33,1.34Zm-283.59,159.73c-9.34-9.43-16.72-16.89-18.73-18.74-9.96-9.22-24.19-32.03-24.65-53.89-.25-12.03,3.68-22.22,11.69-30.29,19.81-19.94,30.94-21.25,53.12-23.87,5.9-.69,12.58-1.48,20.36-2.74,23.34-3.76,100.52-12.75,149.61-14.63-1.75,3.59-3.22,7.4-5.47,14.28-.37,1.14-1.19,2.95-2.14,5.05-3.59,7.97-9.61,21.31-5.97,30.48,.79,1.98,1.99,3.66,3.56,5.04,.3,.65,.71,1.2,1.21,1.66-19.88,5.42-54.79,12.42-63.38,13.5-15.11,1.89-32.18,4.37-45.65,6.65-5.64,.95-10.01,1.75-13.41,2.44-4.42,.49-21.52,3.3-30.69,8.88l1.97,3.24c4.36-2.65,10.74-4.65,16.5-6.03,.24,.41,1.25,1.82,28.01,20.62,8.75,6.15,14.83,10.33,19.08,13.17l-49.21,69.5,.4,.81c-.34,0-.69-.02-1.04-.03-13.49-13.11-32.71-32.51-45.18-45.1ZM434.02,127.73c26.09-26.7,58.04-42.64,85.49-42.64h.1c18.11,.02,33.74,6.67,46.45,19.75,34.53,35.53,51.09,62.85,68.63,91.78,7.44,12.27,15.01,24.76,24.18,38.4l-1.05,18.56c-18.46,2.15-38.18,4.71-58.86,7.57-4.58-5.44-10.54-13.9-17.27-23.46-23.7-33.67-56.15-79.77-85.85-80.79-28.3-.97-51.24,30.58-66.41,51.45-.91,1.25-1.78,2.46-2.63,3.62-.62,.84-1.77,2.42-3.33,4.57-44.26,60.84-55.85,75.18-57.77,76.5,0,0,.09-.06,.24-.11l.96,2.77c-22.64,3.31-45.03,6.49-66.93,9.44,35.78-54.49,86.17-128.4,134.06-177.41Z"/></svg>